<?xml version="1.0" standalone="no"?>
<!DOCTYPE svg PUBLIC "-//W3C//DTD SVG 20010904//EN"
 "http://www.w3.org/TR/2001/REC-SVG-20010904/DTD/svg10.dtd">
<svg version="1.0" xmlns="http://www.w3.org/2000/svg"
 width="876.000000pt" height="876.000000pt" viewBox="0 0 876.000000 876.000000"
 preserveAspectRatio="xMidYMid meet">
<metadata>
Created by potrace 1.14, written by Peter Selinger 2001-2017
</metadata>
<g transform="translate(0.000000,876.000000) scale(0.100000,-0.100000)"
fill="#000000" stroke="none">
<path d="M5707 6725 c-17 -31 -191 -379 -192 -385 0 -3 -94 -192 -208 -421
-114 -229 -207 -422 -207 -428 0 -6 -4 -11 -10 -11 -5 0 -10 -4 -10 -9 0 -9
-217 -449 -767 -1558 -85 -172 -154 -315 -153 -319 1 -4 -2 -10 -7 -13 -5 -3
-43 -78 -86 -166 -43 -88 -82 -167 -87 -175 -17 -29 -60 -122 -60 -131 0 -5
-4 -9 -10 -9 -5 0 -10 -4 -10 -10 0 -14 -223 -464 -232 -468 -5 -2 -8 -11 -8
-20 0 -9 -7 -25 -14 -35 -13 -16 -20 -10 -80 72 -36 50 -66 94 -66 98 0 5 -9
15 -20 23 -11 8 -20 18 -20 22 0 4 -36 57 -79 118 l-80 110 -24 -22 c-14 -13
-40 -35 -58 -50 -19 -14 -45 -36 -59 -47 -14 -11 -29 -24 -35 -29 -5 -4 -37
-26 -70 -48 -221 -148 -442 -217 -695 -216 -100 0 -243 16 -325 36 -5 1 -26 6
-45 10 -19 5 -39 11 -45 14 -5 4 -19 8 -29 9 -28 5 -226 105 -226 114 0 5 -6
9 -12 9 -7 0 -25 10 -40 23 -15 13 -38 32 -52 42 -14 10 -22 23 -19 28 3 6 2
7 -4 4 -13 -8 -85 72 -77 85 4 6 2 8 -3 5 -14 -9 -65 54 -58 71 2 7 1 11 -4 7
-13 -7 -74 102 -67 120 3 8 0 12 -7 9 -8 -2 -21 24 -37 73 -14 42 -26 80 -26
85 -1 4 -2 9 -4 11 -1 1 -3 11 -5 22 -2 11 -6 34 -10 51 -5 28 -2 32 20 36 14
3 25 1 25 -6 0 -7 3 -7 8 -1 8 12 112 14 112 2 0 -5 5 -5 11 -1 19 11 128 10
121 -1 -3 -5 2 -4 11 4 12 9 17 10 17 2 0 -7 4 -9 10 -6 17 11 90 11 90 0 0
-5 5 -3 10 5 9 13 10 13 11 0 1 -8 1 -19 0 -23 -1 -5 3 -6 9 -2 6 3 8 10 5 15
-3 4 2 10 10 14 8 3 15 1 15 -5 0 -6 5 -7 12 -3 16 10 68 11 68 1 0 -5 5 -5
12 -1 6 4 24 8 40 8 25 1 32 -5 29 -26 -1 -8 26 -4 36 6 4 4 2 6 -6 4 -7 -2
-15 2 -17 7 -2 6 7 10 20 10 13 0 22 -4 18 -9 -3 -5 1 -5 9 0 16 9 105 8 121
-2 7 -4 8 -2 4 4 -4 7 -2 12 3 12 6 0 11 -4 11 -10 0 -6 10 -6 27 1 19 7 28 6
33 -2 6 -8 13 -8 29 0 15 8 21 9 21 1 0 -6 5 -8 12 -4 16 10 68 11 68 1 0 -5
5 -5 12 -1 16 10 68 11 68 1 0 -5 5 -5 11 -1 18 11 138 10 131 -1 -3 -5 1 -4
10 3 13 10 17 10 21 0 4 -10 6 -10 6 1 1 9 6 8 19 -6 9 -10 14 -14 9 -7 -5 7
0 14 13 17 11 3 20 1 20 -4 0 -6 6 -7 16 -1 9 5 32 6 50 2 19 -4 32 -5 29 -1
-2 4 12 7 30 7 19 -1 35 -5 35 -9 0 -5 5 -5 11 -1 17 10 138 10 132 0 -4 -5 0
-5 8 0 16 9 105 8 121 -2 7 -4 8 -2 4 4 -4 7 -2 12 3 12 6 0 11 -4 11 -10 0
-6 10 -6 27 1 19 7 28 6 33 -2 6 -8 13 -8 29 0 15 8 21 9 21 1 0 -6 5 -8 12
-4 16 10 68 11 68 1 0 -5 5 -5 12 -1 16 10 68 11 68 1 0 -5 5 -5 11 -1 18 11
138 10 131 -1 -3 -5 1 -4 10 3 13 10 17 10 20 0 4 -10 8 -10 21 1 14 11 17 11
17 0 0 -9 3 -10 8 -4 4 6 23 10 42 10 30 0 35 -3 34 -22 -1 -13 3 -20 7 -17 5
3 7 9 4 14 -7 11 13 23 42 25 21 1 28 -7 24 -28 -1 -5 3 -6 8 -2 6 3 8 11 5
18 -3 8 6 12 26 12 16 0 30 -4 30 -9 0 -5 6 -3 14 3 11 9 15 9 19 -1 4 -11 6
26 10 202 1 19 8 41 16 48 14 10 14 11 1 7 -13 -4 -15 13 -15 117 1 68 -2 140
-6 160 -3 20 -2 42 2 49 4 8 3 19 -3 26 -6 7 -11 33 -12 58 0 25 -4 45 -9 45
-4 0 -7 6 -5 13 1 6 -3 35 -10 62 -7 28 -14 61 -17 74 -2 12 -10 30 -17 39
-11 13 -11 14 2 7 13 -8 13 -6 2 8 -8 9 -11 21 -7 27 3 5 2 10 -3 10 -6 0 -13
7 -16 16 -4 10 -2 13 7 8 6 -4 4 2 -5 13 -10 11 -18 25 -18 31 0 7 -4 20 -9
30 -5 9 -31 64 -59 122 -97 201 -234 375 -397 505 -27 22 -52 43 -55 46 -3 4
-36 27 -75 52 -127 81 -328 174 -445 205 -8 2 -215 4 -460 4 l-445 0 -105 -37
c-58 -20 -114 -39 -125 -43 -58 -17 -346 -180 -375 -212 -3 -3 -27 -23 -54
-44 -128 -103 -260 -257 -364 -424 -43 -70 -139 -277 -170 -367 -31 -93 -66
-230 -77 -300 -3 -23 -7 -51 -10 -63 -22 -114 -22 -452 0 -587 3 -22 7 -51 9
-65 2 -14 8 -44 15 -67 6 -23 11 -45 10 -50 -1 -4 0 -15 3 -23 11 -29 32 -115
29 -119 -1 -2 2 -7 8 -10 6 -4 12 -16 14 -26 10 -51 122 -287 139 -293 4 -2 6
-8 2 -13 -3 -5 -1 -9 4 -9 10 0 37 -50 33 -63 -1 -5 3 -6 9 -2 5 3 13 -2 17
-11 3 -10 14 -25 22 -34 34 -37 66 -85 65 -97 -1 -7 2 -11 6 -8 7 5 21 -8 87
-78 23 -25 44 -42 47 -39 6 5 9 -11 7 -38 0 -9 2 -10 5 -3 7 16 34 5 34 -14 0
-8 4 -12 9 -9 5 3 25 -10 45 -30 20 -20 36 -33 36 -29 0 3 6 0 14 -7 7 -7 24
-20 36 -28 12 -8 32 -22 44 -31 11 -9 36 -24 54 -33 18 -9 30 -21 27 -26 -4
-6 1 -7 11 -3 13 5 15 3 9 -7 -5 -8 -4 -11 3 -6 9 6 70 -19 112 -45 8 -5 23
-12 33 -15 9 -4 17 -10 17 -14 0 -4 6 -8 13 -7 38 1 49 -4 43 -19 -5 -13 -3
-14 6 -7 15 13 111 -14 102 -28 -3 -5 1 -7 8 -4 24 8 83 -11 80 -26 -3 -11 -1
-12 9 -2 18 18 32 16 25 -3 -5 -14 -4 -15 8 -5 11 9 15 9 19 -1 4 -10 6 -10 6
-1 1 9 8 10 26 3 13 -5 40 -10 60 -12 19 -1 35 -5 35 -8 0 -3 10 -6 23 -7 86
-2 98 -4 91 -15 -5 -7 -3 -8 7 -2 24 14 51 16 43 2 -6 -10 -5 -10 8 -1 8 7 18
10 21 6 4 -3 43 -7 87 -8 43 0 83 -4 86 -8 4 -4 14 -7 23 -6 12 0 11 3 -4 9
-14 5 1 8 45 9 36 0 85 3 109 6 27 3 49 1 58 -7 11 -9 13 -8 11 2 -2 9 6 15
20 16 12 1 23 2 25 3 1 1 16 4 32 5 17 2 41 7 54 11 17 5 21 4 16 -5 -5 -8 1
-7 16 3 13 8 47 20 74 27 28 7 80 23 117 35 49 17 69 20 78 11 8 -8 9 -6 4 7
-3 10 -3 17 2 16 5 -1 12 0 17 1 4 1 10 3 15 4 4 1 29 12 56 24 27 12 55 22
62 22 8 0 14 5 14 11 0 6 9 8 21 4 13 -5 19 -3 15 3 -7 11 21 25 34 17 4 -3
11 2 14 11 4 9 13 14 22 10 8 -3 12 -2 9 4 -3 6 -1 10 4 10 6 0 13 0 16 0 3 0
14 9 25 20 12 12 25 18 30 15 6 -4 10 -2 10 2 0 5 13 16 28 25 23 14 31 15 41
5 10 -9 11 -8 6 5 -5 12 -1 20 11 25 11 4 25 13 32 20 7 7 18 13 23 13 6 0 3
-7 -5 -16 -9 -8 -16 -24 -16 -35 0 -19 -14 -26 -23 -11 -2 4 -2 1 0 -6 5 -22
-7 -34 -21 -23 -9 8 -13 7 -13 -4 0 -7 3 -13 6 -12 8 3 9 -13 3 -35 -2 -10
-12 -18 -21 -18 -14 0 -14 -2 -1 -10 12 -8 12 -10 1 -10 -8 0 -11 -3 -8 -7 4
-3 0 -15 -10 -25 -9 -10 -13 -18 -10 -18 3 0 -13 -37 -36 -82 -22 -46 -41 -87
-42 -93 0 -5 -5 -9 -11 -8 -5 1 -10 -7 -11 -17 -1 -10 -40 -97 -88 -194 -47
-97 -85 -179 -84 -182 0 -4 -3 -10 -8 -13 -6 -5 -194 -374 -198 -391 -4 -16
-41 -86 -48 -91 -5 -3 -9 -9 -8 -12 0 -4 -6 -21 -14 -39 -7 -19 -10 -37 -5
-43 5 -6 62 -10 142 -9 107 0 137 -2 153 -15 18 -15 19 -15 7 1 -11 14 -9 16
21 14 18 -1 39 -6 47 -11 9 -5 11 -4 6 3 -9 15 -1 15 26 1 15 -8 19 -8 13 0
-7 13 35 9 56 -5 7 -4 9 -3 6 3 -8 13 73 11 93 -2 9 -5 11 -4 6 4 -8 12 33 9
55 -5 7 -4 9 -3 6 3 -3 5 18 9 53 9 36 -1 56 -5 53 -11 -3 -5 0 -5 7 2 9 9 19
9 33 2 14 -8 18 -8 13 0 -4 6 0 11 8 11 9 0 30 31 52 80 21 44 41 77 47 73 6
-3 7 -1 3 5 -9 15 35 103 47 95 6 -4 8 1 4 11 -9 24 1 40 17 27 9 -8 13 -7 13
4 0 8 -4 12 -9 9 -4 -3 -8 2 -8 10 0 9 4 16 10 16 5 0 9 6 7 13 -1 6 3 11 10
10 7 -2 10 6 8 17 -2 11 0 20 6 20 5 0 8 3 7 8 -3 16 23 63 32 57 6 -3 7 1 4
10 -4 8 2 27 12 43 10 15 17 31 16 36 -2 5 5 6 14 2 13 -5 14 -3 7 6 -12 16
128 303 142 291 4 -4 5 -3 2 4 -10 16 3 44 16 36 6 -3 7 -1 3 5 -4 6 1 26 11
44 9 18 17 38 18 43 0 6 5 10 12 10 6 0 15 4 20 9 5 5 3 6 -4 2 -7 -4 -13 -5
-13 -2 0 14 92 191 100 191 4 0 12 4 17 9 5 6 2 6 -6 1 -17 -10 -15 -4 26 84
19 41 33 59 42 55 12 -4 12 -2 0 13 -13 15 -12 16 6 9 15 -5 17 -4 9 4 -9 9
-6 22 9 53 11 23 24 45 29 48 5 3 9 8 9 10 -2 13 13 49 20 49 5 0 8 3 7 8 -3
9 74 166 84 170 5 2 6 8 2 13 -3 5 0 9 6 9 6 0 8 5 5 10 -3 6 2 22 12 38 10
15 30 51 43 79 18 37 29 51 40 47 11 -4 12 -2 3 7 -13 13 -6 42 8 33 5 -3 6 2
3 10 -3 9 -1 16 5 16 6 0 10 3 9 8 -3 12 25 82 34 82 4 0 8 3 7 8 -2 15 14 52
22 52 5 0 9 5 9 10 0 6 26 63 57 128 32 64 57 120 55 125 -1 4 2 7 6 7 4 0 14
16 21 35 7 19 17 35 23 35 6 0 8 3 5 6 -9 9 12 46 22 40 4 -3 6 7 3 22 -5 24
-3 25 11 14 13 -11 15 -10 10 8 -6 21 64 170 79 170 4 0 5 6 2 13 -3 8 2 20
10 27 9 7 13 16 10 21 -3 5 0 9 7 9 7 0 9 3 6 6 -4 4 4 21 16 38 12 17 21 33
21 36 -2 9 30 74 45 93 8 9 11 17 7 17 -4 0 -2 9 4 20 6 11 15 18 20 15 5 -3
7 4 5 15 -2 11 1 20 7 20 6 0 8 3 5 7 -4 3 0 15 10 25 9 10 13 18 10 18 -4 0
3 18 14 40 12 22 26 37 32 33 6 -4 7 -1 2 6 -7 13 12 60 30 73 5 4 7 8 2 8 -6
0 37 95 49 109 2 2 14 -4 26 -15 14 -12 18 -13 10 -3 -6 9 -8 19 -4 23 4 4 0
6 -8 4 -8 -2 -14 3 -12 11 3 14 58 128 82 171 8 14 14 29 15 33 0 4 6 11 13
16 8 5 13 11 13 15 -2 17 0 17 17 5 15 -12 15 -12 -1 7 -16 20 -16 23 -2 37 8
9 15 18 15 21 0 14 36 86 42 86 5 0 8 6 8 14 0 16 31 78 43 87 5 3 8 10 8 15
0 14 61 138 73 146 5 4 14 4 20 1 5 -3 6 -1 2 6 -4 6 -11 9 -16 6 -12 -7 51
118 63 126 5 3 8 9 8 13 -3 20 0 26 9 21 5 -3 7 0 4 8 -3 8 2 22 11 30 9 9 17
20 18 24 1 4 5 7 9 6 5 -2 8 1 8 6 0 5 -5 11 -10 13 -6 2 -2 13 10 26 11 12
18 22 14 22 -3 0 -1 7 6 15 7 8 9 15 5 15 -5 0 -1 8 8 18 10 10 14 22 10 25
-3 4 -1 7 6 7 7 0 9 5 6 10 -3 6 -1 10 5 10 6 0 9 4 6 9 -3 5 1 14 9 21 8 7
12 16 9 21 -3 5 0 9 5 9 6 0 10 3 9 8 -5 16 55 122 66 115 6 -4 4 2 -4 12 -14
17 -13 18 3 12 10 -4 16 -3 12 2 -8 14 6 42 18 34 6 -3 7 -1 3 5 -7 12 21 82
37 93 5 3 9 10 9 15 3 27 12 43 21 37 5 -3 7 -2 4 4 -7 11 13 73 24 73 4 0 17
25 29 55 12 30 27 55 32 55 5 0 6 5 3 10 -3 6 -1 10 4 10 6 0 10 3 9 8 -5 15
25 71 35 65 5 -3 7 -1 3 5 -7 12 23 82 36 82 4 0 5 6 2 14 -3 8 4 20 15 28 12
8 18 17 15 20 -10 10 40 108 53 103 7 -2 10 2 7 9 -7 18 34 108 46 101 6 -3 7
0 4 9 -3 8 4 29 16 46 12 16 19 34 15 39 -3 6 2 14 11 19 9 5 15 11 13 13 -6
11 14 49 26 49 8 0 17 4 20 10 3 6 -1 7 -10 4 -13 -5 -12 2 6 37 13 24 27 47
32 50 5 3 9 10 9 15 1 16 9 38 29 75 10 20 19 38 19 40 0 2 -185 4 -411 4
-401 0 -411 0 -422 -20z m-3601 -1979 c-8 16 45 25 62 12 9 -8 16 -8 24 0 14
14 82 17 74 4 -3 -5 1 -9 9 -9 8 0 12 5 8 10 -3 5 9 7 28 4 161 -24 155 -22
138 -45 -12 -16 -12 -16 5 0 15 13 24 14 47 6 16 -5 29 -14 29 -19 0 -4 7 -6
15 -3 8 3 27 -3 43 -15 16 -11 32 -18 36 -14 3 3 6 1 6 -6 0 -7 4 -10 9 -7 5
3 15 -2 22 -11 8 -9 9 -14 4 -11 -6 4 -17 2 -25 -3 -11 -7 -6 -8 16 -4 24 4
41 -2 70 -24 68 -49 182 -170 184 -193 0 -5 9 -17 20 -28 12 -12 18 -25 15
-30 -4 -6 -2 -10 3 -10 9 0 36 -53 33 -65 -1 -3 5 -18 13 -34 8 -15 17 -41 20
-56 3 -15 8 -30 10 -33 3 -3 0 -12 -7 -20 -9 -13 -9 -14 1 -8 7 4 12 1 12 -8
0 -11 -10 -16 -27 -17 -32 -1 -1493 0 -1624 0 l-86 1 5 30 c4 27 12 35 35 31
5 -1 6 3 2 9 -3 6 -12 7 -18 3 -9 -5 -9 -3 0 8 6 8 11 16 11 19 1 16 41 110
52 120 3 3 10 16 16 30 17 38 106 147 131 161 13 7 21 14 18 17 -10 11 157
119 178 114 4 -1 7 2 7 7 0 8 32 22 55 25 6 1 13 5 16 9 3 4 16 9 27 10 12 1
22 4 22 7 0 3 21 11 46 18 41 11 48 11 60 -5 12 -15 13 -15 8 -2 -3 10 -1 20
5 24 6 3 11 0 11 -7 0 -10 2 -10 8 0 5 7 25 13 46 14 20 1 39 5 42 10 3 5 13
1 21 -9 8 -10 12 -13 9 -7z"/>
<path d="M2250 4737 c0 -2 6 -10 14 -16 11 -9 16 -9 22 1 4 7 4 10 -1 6 -4 -4
-14 -3 -22 3 -7 6 -13 9 -13 6z"/>
<path d="M1920 4726 c0 -2 8 -10 18 -17 15 -13 16 -12 3 4 -13 16 -21 21 -21
13z"/>
<path d="M2410 4721 c0 -6 4 -13 10 -16 6 -3 7 1 4 9 -7 18 -14 21 -14 7z"/>
<path d="M1870 4696 c7 -7 13 -7 20 0 6 6 3 10 -10 10 -13 0 -16 -4 -10 -10z"/>
<path d="M2307 4699 c7 -7 15 -10 18 -7 3 3 -2 9 -12 12 -14 6 -15 5 -6 -5z"/>
<path d="M2495 4691 c-3 -5 -2 -12 3 -15 5 -3 9 1 9 9 0 17 -3 19 -12 6z"/>
<path d="M2119 4673 c-13 -16 -12 -17 4 -4 9 7 17 15 17 17 0 8 -8 3 -21 -13z"/>
<path d="M2555 4681 c-3 -5 -2 -12 3 -15 5 -3 9 1 9 9 0 17 -3 19 -12 6z"/>
<path d="M1813 4645 c0 -8 4 -15 9 -15 4 0 8 4 8 9 0 6 -4 12 -8 15 -5 3 -9
-1 -9 -9z"/>
<path d="M2516 4647 c3 -10 9 -15 12 -12 3 3 0 11 -7 18 -10 9 -11 8 -5 -6z"/>
<path d="M1947 4639 c7 -7 15 -10 18 -7 3 3 -2 9 -12 12 -14 6 -15 5 -6 -5z"/>
<path d="M1984 4642 c4 -3 14 -7 22 -8 9 -1 13 0 10 4 -4 3 -14 7 -22 8 -9 1
-13 0 -10 -4z"/>
<path d="M2311 4633 c7 -12 15 -20 18 -17 3 2 -3 12 -13 22 -17 16 -18 16 -5
-5z"/>
<path d="M2550 4640 c0 -5 5 -10 11 -10 5 0 7 5 4 10 -3 6 -8 10 -11 10 -2 0
-4 -4 -4 -10z"/>
<path d="M2173 4615 c0 -8 4 -12 9 -9 5 3 6 10 3 15 -9 13 -12 11 -12 -6z"/>
<path d="M2256 4618 c3 -4 11 -5 19 -1 21 7 19 12 -4 10 -11 0 -18 -5 -15 -9z"/>
<path d="M1675 4609 c-4 -6 -5 -12 -2 -15 2 -3 7 2 10 11 7 17 1 20 -8 4z"/>
<path d="M2575 4599 c-3 -4 2 -6 10 -5 21 3 28 13 10 13 -9 0 -18 -4 -20 -8z"/>
<path d="M1615 4580 c-3 -5 -1 -10 4 -10 6 0 11 5 11 10 0 6 -2 10 -4 10 -3 0
-8 -4 -11 -10z"/>
<path d="M1890 4580 c0 -5 5 -10 11 -10 5 0 7 5 4 10 -3 6 -8 10 -11 10 -2 0
-4 -4 -4 -10z"/>
<path d="M2720 4580 c8 -5 20 -10 25 -10 6 0 3 5 -5 10 -8 5 -19 10 -25 10 -5
0 -3 -5 5 -10z"/>
<path d="M1653 4555 c0 -8 4 -12 9 -9 4 3 8 9 8 15 0 5 -4 9 -8 9 -5 0 -9 -7
-9 -15z"/>
<path d="M1799 4553 c-13 -16 -12 -17 4 -4 16 13 21 21 13 21 -2 0 -10 -8 -17
-17z"/>
<path d="M2030 4559 c0 -5 5 -7 10 -4 6 3 10 8 10 11 0 2 -4 4 -10 4 -5 0 -10
-5 -10 -11z"/>
<path d="M1595 4552 c4 -8 -1 -23 -11 -35 -18 -22 -18 -22 6 0 20 19 22 25 11
35 -11 11 -13 10 -6 0z"/>
<path d="M1634 4514 c1 -8 4 -15 7 -16 2 -2 3 -1 2 1 -2 2 2 9 7 16 7 8 5 12
-4 12 -8 0 -13 -6 -12 -13z"/>
<path d="M1675 4521 c-3 -5 -2 -12 3 -15 5 -3 9 1 9 9 0 17 -3 19 -12 6z"/>
<path d="M1770 4520 c0 -5 5 -10 11 -10 5 0 7 5 4 10 -3 6 -8 10 -11 10 -2 0
-4 -4 -4 -10z"/>
<path d="M2815 4511 c-3 -5 -2 -12 3 -15 5 -3 9 1 9 9 0 17 -3 19 -12 6z"/>
<path d="M2775 4501 c-3 -5 -2 -12 3 -15 5 -3 9 1 9 9 0 17 -3 19 -12 6z"/>
<path d="M1576 4482 c-3 -5 1 -9 9 -9 8 0 12 4 9 9 -3 4 -7 8 -9 8 -2 0 -6 -4
-9 -8z"/>
<path d="M1469 4443 c-13 -16 -12 -17 4 -4 9 7 17 15 17 17 0 8 -8 3 -21 -13z"/>
<path d="M1610 4419 c0 -5 5 -7 10 -4 6 3 10 8 10 11 0 2 -4 4 -10 4 -5 0 -10
-5 -10 -11z"/>
<path d="M1496 4398 c3 -4 11 -5 19 -1 21 7 19 12 -4 10 -11 0 -18 -5 -15 -9z"/>
<path d="M1413 4315 c0 -8 4 -12 9 -9 4 3 8 9 8 15 0 5 -4 9 -8 9 -5 0 -9 -7
-9 -15z"/>
<path d="M1380 4286 c0 -2 8 -10 18 -17 15 -13 16 -12 3 4 -13 16 -21 21 -21
13z"/>
<path d="M1450 4259 c0 -5 5 -7 10 -4 6 3 10 8 10 11 0 2 -4 4 -10 4 -5 0 -10
-5 -10 -11z"/>
<path d="M1393 4233 c0 -9 4 -10 14 -2 7 6 13 12 13 14 0 1 -6 2 -13 2 -8 0
-14 -6 -14 -14z"/>
<path d="M1320 4140 c-9 -6 -10 -10 -3 -10 6 0 15 5 18 10 8 12 4 12 -15 0z"/>
<path d="M6470 6465 c0 -7 30 -13 34 -7 3 4 -4 9 -15 9 -10 1 -19 0 -19 -2z"/>
<path d="M6496 6382 c-3 -5 1 -9 9 -9 8 0 12 4 9 9 -3 4 -7 8 -9 8 -2 0 -6 -4
-9 -8z"/>
<path d="M6386 6359 c4 -8 30 -6 38 2 3 3 -5 5 -19 5 -13 0 -22 -3 -19 -7z"/>
<path d="M6540 6366 c0 -2 8 -10 18 -17 15 -13 16 -12 3 4 -13 16 -21 21 -21
13z"/>
<path d="M6373 6315 c0 -8 4 -12 9 -9 4 3 8 9 8 15 0 5 -4 9 -8 9 -5 0 -9 -7
-9 -15z"/>
<path d="M6454 6316 c1 -8 5 -18 8 -22 4 -3 5 1 4 10 -1 8 -5 18 -8 22 -4 3
-5 -1 -4 -10z"/>
<path d="M6335 6289 c-4 -6 -5 -12 -2 -15 2 -3 7 2 10 11 7 17 1 20 -8 4z"/>
<path d="M6435 6240 c-3 -5 -1 -10 4 -10 6 0 11 5 11 10 0 6 -2 10 -4 10 -3 0
-8 -4 -11 -10z"/>
<path d="M6370 6179 c0 -5 5 -7 10 -4 6 3 10 8 10 11 0 2 -4 4 -10 4 -5 0 -10
-5 -10 -11z"/>
<path d="M6435 6171 c-3 -5 -2 -12 3 -15 5 -3 9 1 9 9 0 17 -3 19 -12 6z"/>
<path d="M6260 6145 c0 -2 6 -8 13 -14 10 -8 14 -7 14 2 0 8 -6 14 -14 14 -7
0 -13 -1 -13 -2z"/>
<path d="M6274 6046 c1 -8 5 -18 8 -22 4 -3 5 1 4 10 -1 8 -5 18 -8 22 -4 3
-5 -1 -4 -10z"/>
<path d="M6309 6043 c-13 -16 -12 -17 4 -4 9 7 17 15 17 17 0 8 -8 3 -21 -13z"/>
<path d="M6259 5908 c-5 -18 -6 -38 -1 -34 7 8 12 36 6 36 -2 0 -4 -1 -5 -2z"/>
<path d="M6115 5861 c-3 -5 -2 -12 3 -15 5 -3 9 1 9 9 0 17 -3 19 -12 6z"/>
<path d="M6195 5820 c-3 -5 -1 -10 4 -10 6 0 11 5 11 10 0 6 -2 10 -4 10 -3 0
-8 -4 -11 -10z"/>
<path d="M6170 5779 c0 -5 5 -7 10 -4 6 3 10 8 10 11 0 2 -4 4 -10 4 -5 0 -10
-5 -10 -11z"/>
<path d="M6113 5766 c0 -15 22 -15 34 0 4 5 4 6 -1 2 -5 -4 -14 -3 -21 2 -8 7
-12 5 -12 -4z"/>
<path d="M6053 5725 c0 -8 3 -13 5 -10 3 3 10 0 17 -5 8 -7 12 -5 12 5 0 8 -3
13 -5 10 -3 -3 -10 0 -17 5 -8 7 -12 5 -12 -5z"/>
<path d="M6130 5699 c0 -5 5 -7 10 -4 6 3 10 8 10 11 0 2 -4 4 -10 4 -5 0 -10
-5 -10 -11z"/>
<path d="M6040 5660 c-9 -6 -10 -10 -3 -10 6 0 15 5 18 10 8 12 4 12 -15 0z"/>
<path d="M6073 5615 c0 -8 4 -12 9 -9 5 3 6 10 3 15 -9 13 -12 11 -12 -6z"/>
<path d="M6030 5606 c0 -2 7 -7 16 -10 8 -3 12 -2 9 4 -6 10 -25 14 -25 6z"/>
<path d="M6095 5520 c3 -5 8 -10 11 -10 2 0 4 5 4 10 0 6 -5 10 -11 10 -5 0
-7 -4 -4 -10z"/>
<path d="M6056 5502 c-3 -5 1 -9 9 -9 8 0 12 4 9 9 -3 4 -7 8 -9 8 -2 0 -6 -4
-9 -8z"/>
<path d="M5915 5449 c-4 -6 -5 -12 -2 -15 2 -3 7 2 10 11 7 17 1 20 -8 4z"/>
<path d="M6015 5420 c3 -5 8 -10 11 -10 2 0 4 5 4 10 0 6 -5 10 -11 10 -5 0
-7 -4 -4 -10z"/>
<path d="M5890 5406 c0 -2 7 -7 16 -10 8 -3 12 -2 9 4 -6 10 -25 14 -25 6z"/>
<path d="M5970 5379 c0 -5 5 -7 10 -4 6 3 10 8 10 11 0 2 -4 4 -10 4 -5 0 -10
-5 -10 -11z"/>
<path d="M5860 5320 c-9 -6 -10 -10 -3 -10 6 0 15 5 18 10 8 12 4 12 -15 0z"/>
<path d="M5836 5273 c-6 -14 -5 -15 5 -6 7 7 10 15 7 18 -3 3 -9 -2 -12 -12z"/>
<path d="M5870 5281 c0 -6 4 -13 10 -16 6 -3 7 1 4 9 -7 18 -14 21 -14 7z"/>
<path d="M6443 5249 c-105 -35 -212 -88 -304 -148 -92 -61 -230 -194 -283
-273 -22 -32 -43 -55 -49 -51 -6 3 -7 1 -3 -6 4 -6 -1 -24 -11 -39 -10 -15
-18 -31 -19 -37 -1 -5 -9 -28 -19 -50 -11 -22 -20 -43 -21 -47 -1 -5 -3 -11
-4 -15 -1 -5 -3 -12 -5 -18 -1 -5 -3 -13 -5 -17 -1 -5 -4 -12 -5 -18 -1 -5 -3
-11 -5 -12 -17 -22 -21 -332 -4 -419 26 -139 81 -279 140 -356 13 -17 24 -34
24 -38 0 -3 11 -17 25 -31 14 -14 25 -29 25 -34 0 -6 7 -10 16 -10 10 0 14 -6
10 -15 -3 -8 -2 -14 3 -12 4 1 22 -9 39 -22 27 -20 30 -27 20 -40 -10 -13 -10
-14 2 -4 10 10 20 8 44 -9 17 -12 33 -25 36 -28 3 -3 19 -13 35 -22 19 -11 29
-24 27 -35 -2 -15 -1 -16 8 -3 7 10 12 12 18 4 4 -6 17 -15 30 -18 20 -7 21
-10 10 -24 -11 -15 -11 -15 3 -5 12 10 21 10 42 0 15 -6 27 -16 27 -20 0 -5 5
-5 10 -2 6 3 10 1 10 -4 0 -6 3 -10 8 -9 4 0 16 -2 27 -6 11 -4 32 -12 48 -18
15 -6 27 -15 27 -21 0 -6 3 -8 6 -5 9 9 109 -30 106 -42 -1 -5 2 -10 8 -10 5
0 10 6 10 13 0 9 2 9 9 -1 4 -8 11 -13 15 -13 3 1 7 1 9 0 12 -4 44 -10 55
-11 6 -1 12 -5 12 -10 0 -4 3 -7 8 -6 18 5 141 -36 135 -45 -3 -6 -1 -7 4 -4
13 8 123 -13 123 -23 0 -4 6 -7 13 -7 6 0 26 -4 42 -8 17 -4 42 -9 57 -12 15
-3 25 -9 23 -14 -3 -4 3 -7 12 -6 30 2 153 -46 146 -56 -4 -6 0 -8 10 -4 22 8
49 -2 40 -16 -3 -6 -1 -7 5 -3 7 4 29 0 49 -9 59 -26 68 -32 65 -46 -2 -10 0
-10 12 1 11 8 16 9 16 1 0 -6 7 -11 15 -11 13 0 19 -12 16 -32 0 -4 7 -4 16
-1 13 5 15 2 10 -11 -5 -11 -3 -15 5 -10 8 5 9 2 5 -9 -3 -9 -3 -16 1 -14 4 1
7 0 7 -3 0 -3 7 -17 16 -30 9 -14 15 -33 13 -42 -1 -10 1 -18 6 -18 9 0 8 -19
-3 -37 -4 -6 -3 -14 2 -17 9 -6 8 -24 -5 -88 -24 -120 -167 -237 -324 -266
-56 -11 -307 -8 -370 3 -256 46 -449 154 -626 350 -38 41 -71 75 -75 75 -6 0
-18 -10 -79 -63 -14 -12 -54 -46 -90 -77 -36 -30 -67 -57 -70 -60 -3 -3 -32
-27 -65 -55 -33 -27 -64 -55 -70 -61 -5 -6 -37 -33 -70 -60 -75 -61 -85 -71
-85 -80 0 -23 201 -244 222 -244 6 0 7 -7 4 -16 -3 -8 -2 -13 3 -10 8 6 103
-60 109 -76 2 -4 10 -8 18 -8 8 0 14 -4 14 -10 0 -5 7 -10 15 -10 8 0 15 -4
15 -10 0 -5 7 -10 15 -10 8 0 15 -5 15 -11 0 -5 4 -8 9 -4 5 3 12 1 15 -4 4
-5 2 -12 -4 -16 -5 -3 -10 -11 -10 -18 0 -6 6 -3 13 7 13 17 52 13 41 -5 -3
-5 2 -6 10 -3 9 3 16 1 16 -5 0 -6 3 -11 8 -10 15 2 52 -14 52 -22 0 -5 3 -8
8 -7 8 2 45 -9 87 -27 34 -15 66 -27 78 -30 4 -2 8 -3 10 -4 1 -2 13 -5 27 -7
14 -3 26 -9 28 -14 2 -5 10 -6 18 -3 8 3 14 1 14 -3 0 -5 17 -10 38 -11 20 -1
64 -9 97 -17 33 -9 72 -16 87 -16 14 0 29 -6 31 -12 4 -9 6 -10 6 -1 1 8 10 9
31 3 17 -5 30 -6 30 -2 0 4 5 0 10 -8 7 -11 10 -11 10 -2 0 7 5 10 10 7 6 -4
8 -12 4 -18 -3 -7 2 -3 10 7 9 11 16 15 16 10 0 -6 46 -9 113 -8 71 1 117 -3
126 -10 11 -8 13 -8 7 2 -4 7 -2 12 8 12 8 0 17 -6 19 -12 4 -10 6 -9 6 1 1
11 6 10 24 -5 12 -10 16 -12 10 -4 -18 20 -16 26 7 26 12 0 19 -5 16 -13 -3
-7 -1 -15 5 -18 5 -4 9 -3 8 2 -1 4 -1 14 0 22 1 11 4 11 18 0 11 -10 14 -10
9 -1 -5 8 0 12 16 13 61 3 74 5 84 11 6 4 26 9 43 10 18 1 35 6 38 11 2 4 12
2 21 -5 12 -10 14 -10 8 0 -4 6 -2 12 3 12 18 0 26 -5 23 -13 -1 -5 2 -6 8 -2
6 3 8 10 5 15 -6 10 54 32 66 24 5 -3 6 -10 3 -16 -4 -7 -2 -8 4 -4 6 4 8 14
5 23 -4 11 -3 14 5 9 7 -4 12 -2 12 3 0 6 3 10 8 9 15 -3 113 41 124 57 4 6 8
6 8 1 0 -5 7 -3 15 4 8 7 15 9 15 4 0 -5 4 -4 8 1 4 6 27 23 51 39 35 23 45
25 53 14 8 -10 9 -9 4 5 -4 12 5 24 33 41 46 29 184 167 208 207 10 16 21 29
25 29 4 0 8 5 8 11 0 6 11 24 25 41 14 16 25 36 25 44 0 8 5 14 10 14 6 0 10
6 10 13 0 7 9 29 20 50 11 20 18 37 15 37 -3 0 0 10 7 23 7 12 14 33 16 47 2
14 7 26 12 28 5 2 6 10 3 19 -4 10 -2 14 4 10 7 -5 9 0 6 13 -3 11 1 28 8 37
12 14 12 16 0 8 -11 -6 -13 -4 -8 9 4 10 7 27 7 38 0 16 3 18 13 9 10 -8 14
-7 14 4 0 7 -4 13 -10 12 -5 -1 -10 50 -13 113 -2 63 -4 120 -4 125 -1 6 1 20
4 33 3 12 1 20 -4 17 -16 -10 -16 30 0 43 13 11 13 12 0 10 -9 -2 -14 4 -14
15 1 9 -3 17 -8 17 -5 0 -8 6 -5 13 2 6 -2 24 -10 40 -7 15 -11 27 -8 27 3 0
1 10 -6 21 -9 17 -8 20 3 14 7 -5 2 4 -11 18 -14 15 -21 27 -17 27 5 0 1 11
-8 25 -9 14 -13 25 -9 25 5 0 4 4 -2 8 -12 8 -55 69 -55 77 0 3 -8 13 -18 23
-10 10 -25 27 -33 38 -27 36 -179 169 -179 156 0 -4 -4 -2 -8 4 -11 17 -165
104 -184 104 -9 0 -21 7 -26 16 -5 9 -11 14 -14 12 -2 -1 -29 8 -59 21 -58 25
-65 28 -149 60 -64 24 -277 88 -312 94 -12 2 -30 6 -38 9 -8 4 -44 14 -80 23
-68 17 -198 62 -262 89 -21 9 -41 16 -45 17 -5 0 -15 6 -23 12 -8 7 -31 21
-50 31 -71 38 -140 121 -132 159 1 4 -3 7 -8 7 -6 0 -10 7 -10 16 0 9 5 13 13
9 6 -4 5 -1 -4 7 -18 15 -26 108 -10 108 6 0 11 5 11 11 0 5 -4 8 -8 5 -5 -3
-9 1 -9 9 0 8 3 15 7 15 4 0 7 6 7 14 0 23 33 87 49 93 8 3 14 11 14 19 0 13
13 19 33 15 5 -1 5 3 2 9 -4 7 2 14 14 17 12 3 21 10 21 15 0 6 7 8 15 4 8 -3
15 -2 15 3 0 4 18 15 39 23 29 12 42 13 52 4 9 -8 10 -8 4 3 -6 11 -3 13 13 9
12 -4 20 -2 16 3 -3 5 5 9 18 10 25 1 49 4 116 12 28 4 42 1 42 -6 0 -8 3 -8
8 -2 11 17 98 12 94 -5 -3 -11 0 -11 12 0 13 10 19 10 33 -1 9 -8 14 -9 10 -2
-5 7 0 9 13 6 11 -3 20 -10 20 -15 0 -5 5 -6 10 -3 16 10 51 -5 43 -18 -4 -7
2 -5 12 3 15 12 17 12 10 1 -6 -11 -4 -13 7 -8 9 3 39 -5 67 -18 28 -14 55
-26 59 -27 4 -2 6 -5 5 -8 -1 -3 10 -7 24 -8 14 -1 33 -10 42 -19 9 -10 23
-19 31 -21 8 -2 17 -7 20 -10 3 -4 17 -13 33 -21 15 -8 27 -18 27 -23 0 -5 5
-6 10 -3 6 3 10 2 10 -3 0 -5 12 -14 26 -20 15 -7 22 -17 18 -24 -4 -7 -3 -8
4 -4 12 7 52 -13 52 -27 0 -4 -4 -5 -10 -2 -6 3 -7 -1 -3 -10 4 -12 8 -13 13
-5 4 7 13 9 19 6 6 -4 8 -12 5 -18 -4 -6 -2 -8 4 -4 14 8 44 -22 36 -36 -4 -6
-2 -8 3 -5 12 7 36 -16 27 -25 -3 -3 1 -5 10 -4 8 0 15 -3 15 -9 0 -5 10 -13
23 -18 37 -16 47 -16 41 -1 -3 9 1 14 12 14 9 0 13 5 10 10 -3 6 1 13 9 16 9
3 16 10 16 15 0 5 19 28 43 52 23 23 59 61 79 84 20 23 39 39 42 35 3 -3 6 1
6 9 0 18 53 72 63 64 4 -3 5 -2 2 1 -8 11 36 65 47 58 6 -4 8 -2 5 3 -8 13 17
36 28 25 5 -4 5 -1 1 6 -4 7 -2 12 5 12 7 0 10 3 6 6 -3 3 8 19 24 35 16 16
26 29 22 29 -4 0 -2 4 4 8 9 6 1 21 -30 54 -23 25 -49 54 -59 64 -18 22 -90
87 -132 123 -83 68 -303 193 -406 230 -19 7 -44 17 -55 22 -11 4 -51 18 -90
30 -67 21 -87 22 -517 23 l-448 1 -77 -26z"/>
<path d="M5850 5239 c0 -5 5 -7 10 -4 6 3 10 8 10 11 0 2 -4 4 -10 4 -5 0 -10
-5 -10 -11z"/>
<path d="M5890 5180 c0 -5 5 -10 11 -10 5 0 7 5 4 10 -3 6 -8 10 -11 10 -2 0
-4 -4 -4 -10z"/>
<path d="M5833 5135 c0 -8 4 -12 9 -9 5 3 6 10 3 15 -9 13 -12 11 -12 -6z"/>
<path d="M5793 5113 c0 -9 4 -10 14 -2 7 6 13 12 13 14 0 1 -6 2 -13 2 -8 0
-14 -6 -14 -14z"/>
<path d="M5815 5020 c3 -5 8 -10 11 -10 2 0 4 5 4 10 0 6 -5 10 -11 10 -5 0
-7 -4 -4 -10z"/>
<path d="M5773 4935 c0 -8 4 -12 9 -9 5 3 6 10 3 15 -9 13 -12 11 -12 -6z"/>
<path d="M5673 4915 c0 -8 4 -12 9 -9 5 3 6 10 3 15 -9 13 -12 11 -12 -6z"/>
<path d="M5700 4926 c0 -2 8 -10 18 -17 15 -13 16 -12 3 4 -13 16 -21 21 -21
13z"/>
<path d="M5586 4758 c3 -5 10 -6 15 -3 13 9 11 12 -6 12 -8 0 -12 -4 -9 -9z"/>
<path d="M5650 4740 c0 -5 5 -10 11 -10 5 0 7 5 4 10 -3 6 -8 10 -11 10 -2 0
-4 -4 -4 -10z"/>
<path d="M5696 4738 c3 -5 10 -6 15 -3 13 9 11 12 -6 12 -8 0 -12 -4 -9 -9z"/>
<path d="M5560 4700 c-9 -6 -10 -10 -3 -10 6 0 15 5 18 10 8 12 4 12 -15 0z"/>
<path d="M5610 4660 c0 -5 5 -10 11 -10 5 0 7 5 4 10 -3 6 -8 10 -11 10 -2 0
-4 -4 -4 -10z"/>
<path d="M5615 4631 c-3 -5 -2 -12 3 -15 5 -3 9 1 9 9 0 17 -3 19 -12 6z"/>
<path d="M6773 4605 c0 -8 4 -15 9 -15 4 0 8 4 8 9 0 6 -4 12 -8 15 -5 3 -9
-1 -9 -9z"/>
<path d="M6706 4598 c3 -5 10 -6 15 -3 13 9 11 12 -6 12 -8 0 -12 -4 -9 -9z"/>
<path d="M6810 4601 c0 -6 4 -12 8 -15 5 -3 9 1 9 9 0 8 -4 15 -9 15 -4 0 -8
-4 -8 -9z"/>
<path d="M8230 4606 c0 -2 7 -7 16 -10 8 -3 12 -2 9 4 -6 10 -25 14 -25 6z"/>
<path d="M8210 4579 c0 -5 5 -7 10 -4 6 3 10 8 10 11 0 2 -4 4 -10 4 -5 0 -10
-5 -10 -11z"/>
<path d="M7030 4576 c0 -2 8 -10 18 -17 15 -13 16 -12 3 4 -13 16 -21 21 -21
13z"/>
<path d="M6656 4562 c-3 -5 1 -9 9 -9 8 0 12 4 9 9 -3 4 -7 8 -9 8 -2 0 -6 -4
-9 -8z"/>
<path d="M7187 4559 c7 -7 15 -10 18 -7 3 3 -2 9 -12 12 -14 6 -15 5 -6 -5z"/>
<path d="M7270 4566 c0 -2 7 -7 16 -10 8 -3 12 -2 9 4 -6 10 -25 14 -25 6z"/>
<path d="M7313 4555 c0 -8 4 -12 9 -9 5 3 6 10 3 15 -9 13 -12 11 -12 -6z"/>
<path d="M5476 4541 c-3 -5 2 -15 12 -22 15 -12 16 -12 5 2 -7 9 -10 19 -6 22
3 4 4 7 0 7 -3 0 -8 -4 -11 -9z"/>
<path d="M7015 4540 c-3 -5 -1 -10 4 -10 6 0 11 5 11 10 0 6 -2 10 -4 10 -3 0
-8 -4 -11 -10z"/>
<path d="M7074 4542 c4 -3 14 -7 22 -8 9 -1 13 0 10 4 -4 3 -14 7 -22 8 -9 1
-13 0 -10 -4z"/>
<path d="M8320 4540 c-9 -6 -10 -10 -3 -10 6 0 15 5 18 10 8 12 4 12 -15 0z"/>
<path d="M7236 4527 c3 -10 9 -15 12 -12 3 3 0 11 -7 18 -10 9 -11 8 -5 -6z"/>
<path d="M7355 4529 c-4 -6 -5 -12 -2 -15 2 -3 7 2 10 11 7 17 1 20 -8 4z"/>
<path d="M6676 4518 c3 -5 10 -6 15 -3 13 9 11 12 -6 12 -8 0 -12 -4 -9 -9z"/>
<path d="M6865 4520 c-3 -6 1 -7 9 -4 18 7 21 14 7 14 -6 0 -13 -4 -16 -10z"/>
<path d="M6535 4500 c-3 -5 -1 -10 4 -10 6 0 11 5 11 10 0 6 -2 10 -4 10 -3 0
-8 -4 -11 -10z"/>
<path d="M6589 4497 c6 -8 7 -18 3 -22 -4 -5 -1 -5 6 -1 10 6 10 11 1 22 -6 8
-14 14 -16 14 -3 0 0 -6 6 -13z"/>
<path d="M6673 4485 c0 -8 4 -12 9 -9 5 3 6 10 3 15 -9 13 -12 11 -12 -6z"/>
<path d="M5470 4481 c0 -6 4 -13 10 -16 6 -3 7 1 4 9 -7 18 -14 21 -14 7z"/>
<path d="M5516 4473 c-6 -14 -5 -15 5 -6 7 7 10 15 7 18 -3 3 -9 -2 -12 -12z"/>
<path d="M7310 4480 c0 -5 5 -10 11 -10 5 0 7 5 4 10 -3 6 -8 10 -11 10 -2 0
-4 -4 -4 -10z"/>
<path d="M6736 4458 c3 -4 11 -5 19 -1 21 7 19 12 -4 10 -11 0 -18 -5 -15 -9z"/>
<path d="M7413 4455 c0 -8 4 -12 9 -9 5 3 6 10 3 15 -9 13 -12 11 -12 -6z"/>
<path d="M7450 4459 c0 -5 5 -7 10 -4 6 3 10 8 10 11 0 2 -4 4 -10 4 -5 0 -10
-5 -10 -11z"/>
<path d="M8215 4461 c-3 -5 -2 -12 3 -15 5 -3 9 1 9 9 0 17 -3 19 -12 6z"/>
<path d="M6555 4449 c-4 -6 -5 -12 -2 -15 2 -3 7 2 10 11 7 17 1 20 -8 4z"/>
<path d="M8029 4443 c-13 -16 -12 -17 4 -4 9 7 17 15 17 17 0 8 -8 3 -21 -13z"/>
<path d="M5527 4439 c7 -7 15 -10 18 -7 3 3 -2 9 -12 12 -14 6 -15 5 -6 -5z"/>
<path d="M6655 4429 c-4 -6 -5 -12 -2 -15 2 -3 7 2 10 11 7 17 1 20 -8 4z"/>
<path d="M7535 4420 c-3 -5 -1 -10 4 -10 6 0 11 5 11 10 0 6 -2 10 -4 10 -3 0
-8 -4 -11 -10z"/>
<path d="M5413 4395 c0 -8 4 -12 9 -9 4 3 8 9 8 15 0 5 -4 9 -8 9 -5 0 -9 -7
-9 -15z"/>
<path d="M7980 4385 c0 -2 6 -8 13 -14 10 -8 14 -7 14 2 0 8 -6 14 -14 14 -7
0 -13 -1 -13 -2z"/>
<path d="M7556 4367 c3 -10 9 -15 12 -12 3 3 0 11 -7 18 -10 9 -11 8 -5 -6z"/>
<path d="M5376 4353 c-6 -14 -5 -15 5 -6 7 7 10 15 7 18 -3 3 -9 -2 -12 -12z"/>
<path d="M8195 4360 c-3 -5 -1 -10 4 -10 6 0 11 5 11 10 0 6 -2 10 -4 10 -3 0
-8 -4 -11 -10z"/>
<path d="M6510 4339 c0 -5 5 -7 10 -4 6 3 10 8 10 11 0 2 -4 4 -10 4 -5 0 -10
-5 -10 -11z"/>
<path d="M8086 4338 c3 -5 10 -6 15 -3 13 9 11 12 -6 12 -8 0 -12 -4 -9 -9z"/>
<path d="M5386 4318 c3 -5 10 -6 15 -3 13 9 11 12 -6 12 -8 0 -12 -4 -9 -9z"/>
<path d="M7955 4321 c-3 -5 -2 -12 3 -15 5 -3 9 1 9 9 0 17 -3 19 -12 6z"/>
<path d="M5355 4311 c-3 -5 -2 -12 3 -15 5 -3 9 1 9 9 0 17 -3 19 -12 6z"/>
<path d="M8053 4305 c0 -8 4 -12 9 -9 5 3 6 10 3 15 -9 13 -12 11 -12 -6z"/>
<path d="M5440 4300 c-12 -7 -10 -9 7 -7 12 0 19 5 17 9 -6 10 -6 10 -24 -2z"/>
<path d="M7639 4273 c-13 -17 -13 -17 6 -3 11 8 22 16 24 17 2 2 0 3 -6 3 -6
0 -17 -8 -24 -17z"/>
<path d="M6510 4265 c0 -7 30 -13 34 -7 3 4 -4 9 -15 9 -10 1 -19 0 -19 -2z"/>
<path d="M8010 4260 c0 -5 5 -10 11 -10 5 0 7 5 4 10 -3 6 -8 10 -11 10 -2 0
-4 -4 -4 -10z"/>
<path d="M7956 4247 c3 -10 9 -15 12 -12 3 3 0 11 -7 18 -10 9 -11 8 -5 -6z"/>
<path d="M5410 4220 c0 -5 5 -10 11 -10 5 0 7 5 4 10 -3 6 -8 10 -11 10 -2 0
-4 -4 -4 -10z"/>
<path d="M5370 4216 c0 -2 8 -10 18 -17 15 -13 16 -12 3 4 -13 16 -21 21 -21
13z"/>
<path d="M7850 4200 c0 -5 5 -10 11 -10 5 0 7 5 4 10 -3 6 -8 10 -11 10 -2 0
-4 -4 -4 -10z"/>
<path d="M5313 4115 c0 -8 4 -12 9 -9 5 3 6 10 3 15 -9 13 -12 11 -12 -6z"/>
<path d="M5355 4120 c-3 -5 -1 -10 4 -10 6 0 11 5 11 10 0 6 -2 10 -4 10 -3 0
-8 -4 -11 -10z"/>
<path d="M5315 4019 c-3 -4 2 -6 10 -5 21 3 28 13 10 13 -9 0 -18 -4 -20 -8z"/>
<path d="M5295 3980 c-3 -5 -1 -10 4 -10 6 0 11 5 11 10 0 6 -2 10 -4 10 -3 0
-8 -4 -11 -10z"/>
<path d="M5185 3940 c-3 -6 1 -7 9 -4 18 7 21 14 7 14 -6 0 -13 -4 -16 -10z"/>
<path d="M5255 3861 c-3 -5 -2 -12 3 -15 5 -3 9 1 9 9 0 17 -3 19 -12 6z"/>
<path d="M3850 3819 c0 -5 5 -7 10 -4 6 3 10 8 10 11 0 2 -4 4 -10 4 -5 0 -10
-5 -10 -11z"/>
<path d="M5200 3820 c-12 -7 -10 -9 7 -7 12 0 19 5 17 9 -6 10 -6 10 -24 -2z"/>
<path d="M5089 3763 c-13 -16 -12 -17 4 -4 9 7 17 15 17 17 0 8 -8 3 -21 -13z"/>
<path d="M3875 3701 c-3 -5 -2 -12 3 -15 5 -3 9 1 9 9 0 17 -3 19 -12 6z"/>
<path d="M5065 3700 c-3 -6 1 -7 9 -4 18 7 21 14 7 14 -6 0 -13 -4 -16 -10z"/>
<path d="M5025 3620 c-3 -6 1 -7 9 -4 18 7 21 14 7 14 -6 0 -13 -4 -16 -10z"/>
<path d="M3873 3605 c0 -8 4 -12 9 -9 5 3 6 10 3 15 -9 13 -12 11 -12 -6z"/>
<path d="M5035 3601 c-3 -5 -2 -12 3 -15 5 -3 9 1 9 9 0 17 -3 19 -12 6z"/>
<path d="M5097 3595 c-4 -8 -3 -16 1 -19 4 -3 9 4 9 15 2 23 -3 25 -10 4z"/>
<path d="M4980 3540 c-9 -6 -10 -10 -3 -10 6 0 15 5 18 10 8 12 4 12 -15 0z"/>
<path d="M5046 3498 c3 -5 10 -6 15 -3 13 9 11 12 -6 12 -8 0 -12 -4 -9 -9z"/>
<path d="M4950 3479 c0 -5 5 -7 10 -4 6 3 10 8 10 11 0 2 -4 4 -10 4 -5 0 -10
-5 -10 -11z"/>
<path d="M6070 3481 c0 -6 4 -13 10 -16 6 -3 7 1 4 9 -7 18 -14 21 -14 7z"/>
<path d="M5010 3459 c0 -5 5 -7 10 -4 6 3 10 8 10 11 0 2 -4 4 -10 4 -5 0 -10
-5 -10 -11z"/>
<path d="M2470 3457 c0 -2 6 -10 14 -16 11 -9 16 -9 22 1 4 7 4 10 -1 6 -4 -4
-14 -3 -22 3 -7 6 -13 9 -13 6z"/>
<path d="M3430 3457 c0 -2 6 -10 14 -16 11 -9 16 -9 22 1 4 7 4 10 -1 6 -4 -4
-14 -3 -22 3 -7 6 -13 9 -13 6z"/>
<path d="M1370 3441 c0 -6 4 -12 8 -15 5 -3 9 1 9 9 0 8 -4 15 -9 15 -4 0 -8
-4 -8 -9z"/>
<path d="M1476 3441 c-3 -5 2 -15 12 -22 15 -12 16 -12 5 2 -7 9 -10 19 -6 22
3 4 4 7 0 7 -3 0 -8 -4 -11 -9z"/>
<path d="M1656 3442 c-3 -5 1 -9 9 -9 8 0 12 4 9 9 -3 4 -7 8 -9 8 -2 0 -6 -4
-9 -8z"/>
<path d="M2014 3442 c4 -3 14 -7 22 -8 9 -1 13 0 10 4 -4 3 -14 7 -22 8 -9 1
-13 0 -10 -4z"/>
<path d="M2060 3446 c0 -2 8 -10 18 -17 15 -13 16 -12 3 4 -13 16 -21 21 -21
13z"/>
<path d="M2250 3441 c0 -6 4 -13 10 -16 6 -3 7 1 4 9 -7 18 -14 21 -14 7z"/>
<path d="M2330 3441 c0 -6 4 -13 10 -16 6 -3 7 1 4 9 -7 18 -14 21 -14 7z"/>
<path d="M2435 3441 c-3 -5 -2 -12 3 -15 5 -3 9 1 9 9 0 17 -3 19 -12 6z"/>
<path d="M2675 3441 c-3 -5 -2 -12 3 -15 5 -3 9 1 9 9 0 17 -3 19 -12 6z"/>
<path d="M2730 3441 c0 -6 4 -13 10 -16 6 -3 7 1 4 9 -7 18 -14 21 -14 7z"/>
<path d="M2810 3441 c0 -6 4 -13 10 -16 6 -3 7 1 4 9 -7 18 -14 21 -14 7z"/>
<path d="M2886 3438 c3 -5 10 -6 15 -3 13 9 11 12 -6 12 -8 0 -12 -4 -9 -9z"/>
<path d="M2974 3442 c4 -3 14 -7 22 -8 9 -1 13 0 10 4 -4 3 -14 7 -22 8 -9 1
-13 0 -10 -4z"/>
<path d="M3020 3446 c0 -2 8 -10 18 -17 15 -13 16 -12 3 4 -13 16 -21 21 -21
13z"/>
<path d="M3210 3441 c0 -6 4 -13 10 -16 6 -3 7 1 4 9 -7 18 -14 21 -14 7z"/>
<path d="M3290 3441 c0 -6 4 -13 10 -16 6 -3 7 1 4 9 -7 18 -14 21 -14 7z"/>
<path d="M3395 3441 c-3 -5 -2 -12 3 -15 5 -3 9 1 9 9 0 17 -3 19 -12 6z"/>
<path d="M3736 3433 c-6 -14 -5 -15 5 -6 7 7 10 15 7 18 -3 3 -9 -2 -12 -12z"/>
<path d="M3835 3441 c-3 -5 -2 -12 3 -15 5 -3 9 1 9 9 0 17 -3 19 -12 6z"/>
<path d="M2190 3418 c0 -4 4 -8 9 -8 6 0 12 4 15 8 3 5 -1 9 -9 9 -8 0 -15 -4
-15 -9z"/>
<path d="M3150 3418 c0 -4 4 -8 9 -8 6 0 12 4 15 8 3 5 -1 9 -9 9 -8 0 -15 -4
-15 -9z"/>
<path d="M4921 3416 c-9 -11 -9 -16 1 -22 7 -4 10 -4 6 1 -4 4 -3 14 3 22 6 7
9 13 6 13 -2 0 -10 -6 -16 -14z"/>
<path d="M5010 3419 c0 -5 5 -7 10 -4 6 3 10 8 10 11 0 2 -4 4 -10 4 -5 0 -10
-5 -10 -11z"/>
<path d="M2153 3405 c0 -8 4 -12 9 -9 5 3 6 10 3 15 -9 13 -12 11 -12 -6z"/>
<path d="M3113 3405 c0 -8 4 -12 9 -9 5 3 6 10 3 15 -9 13 -12 11 -12 -6z"/>
<path d="M1330 3401 c0 -6 4 -13 10 -16 6 -3 7 1 4 9 -7 18 -14 21 -14 7z"/>
<path d="M1470 3401 c0 -6 4 -13 10 -16 6 -3 7 1 4 9 -7 18 -14 21 -14 7z"/>
<path d="M1553 3395 c0 -8 4 -12 9 -9 5 3 6 10 3 15 -9 13 -12 11 -12 -6z"/>
<path d="M2055 3400 c3 -5 8 -10 11 -10 2 0 4 5 4 10 0 6 -5 10 -11 10 -5 0
-7 -4 -4 -10z"/>
<path d="M2240 3400 c-9 -6 -10 -10 -3 -10 6 0 15 5 18 10 8 12 4 12 -15 0z"/>
<path d="M2416 3398 c3 -5 10 -6 15 -3 13 9 11 12 -6 12 -8 0 -12 -4 -9 -9z"/>
<path d="M2513 3395 c0 -8 4 -12 9 -9 5 3 6 10 3 15 -9 13 -12 11 -12 -6z"/>
<path d="M2640 3400 c-9 -6 -10 -10 -3 -10 6 0 15 5 18 10 8 12 4 12 -15 0z"/>
<path d="M2670 3401 c0 -6 4 -13 10 -16 6 -3 7 1 4 9 -7 18 -14 21 -14 7z"/>
<path d="M3015 3400 c3 -5 8 -10 11 -10 2 0 4 5 4 10 0 6 -5 10 -11 10 -5 0
-7 -4 -4 -10z"/>
<path d="M3200 3400 c-9 -6 -10 -10 -3 -10 6 0 15 5 18 10 8 12 4 12 -15 0z"/>
<path d="M3376 3398 c3 -5 10 -6 15 -3 13 9 11 12 -6 12 -8 0 -12 -4 -9 -9z"/>
<path d="M3473 3395 c0 -8 4 -12 9 -9 5 3 6 10 3 15 -9 13 -12 11 -12 -6z"/>
<path d="M3510 3396 c7 -7 13 -7 20 0 6 6 3 10 -10 10 -13 0 -16 -4 -10 -10z"/>
<path d="M3646 3398 c3 -5 10 -6 15 -3 13 9 11 12 -6 12 -8 0 -12 -4 -9 -9z"/>
<path d="M3756 3393 c-6 -14 -5 -15 5 -6 7 7 10 15 7 18 -3 3 -9 -2 -12 -12z"/>
<path d="M3790 3399 c0 -5 5 -7 10 -4 6 3 10 8 10 11 0 2 -4 4 -10 4 -5 0 -10
-5 -10 -11z"/>
<path d="M4953 3385 c0 -8 4 -12 9 -9 5 3 6 10 3 15 -9 13 -12 11 -12 -6z"/>
<path d="M2193 3365 c0 -8 4 -12 9 -9 5 3 6 10 3 15 -9 13 -12 11 -12 -6z"/>
<path d="M2275 3369 c-4 -6 -5 -12 -2 -15 2 -3 7 2 10 11 7 17 1 20 -8 4z"/>
<path d="M2755 3369 c-4 -6 -5 -12 -2 -15 2 -3 7 2 10 11 7 17 1 20 -8 4z"/>
<path d="M3153 3365 c0 -8 4 -12 9 -9 5 3 6 10 3 15 -9 13 -12 11 -12 -6z"/>
<path d="M3235 3369 c-4 -6 -5 -12 -2 -15 2 -3 7 2 10 11 7 17 1 20 -8 4z"/>
<path d="M1316 3358 c3 -5 10 -6 15 -3 13 9 11 12 -6 12 -8 0 -12 -4 -9 -9z"/>
<path d="M1590 3361 c0 -6 4 -13 10 -16 6 -3 7 1 4 9 -7 18 -14 21 -14 7z"/>
<path d="M1830 3360 c0 -5 5 -10 10 -10 6 0 10 5 10 10 0 6 -4 10 -10 10 -5 0
-10 -4 -10 -10z"/>
<path d="M1933 3351 c0 -11 5 -18 9 -15 4 3 5 11 1 19 -7 21 -12 19 -10 -4z"/>
<path d="M1977 3355 c-4 -8 -3 -16 1 -19 4 -3 9 4 9 15 2 23 -3 25 -10 4z"/>
<path d="M2235 3360 c3 -5 8 -10 11 -10 2 0 4 5 4 10 0 6 -5 10 -11 10 -5 0
-7 -4 -4 -10z"/>
<path d="M2625 3360 c-3 -6 1 -7 9 -4 18 7 21 14 7 14 -6 0 -13 -4 -16 -10z"/>
<path d="M2893 3351 c0 -11 5 -18 9 -15 4 3 5 11 1 19 -7 21 -12 19 -10 -4z"/>
<path d="M2937 3355 c-4 -8 -3 -16 1 -19 4 -3 9 4 9 15 2 23 -3 25 -10 4z"/>
<path d="M3195 3360 c3 -5 8 -10 11 -10 2 0 4 5 4 10 0 6 -5 10 -11 10 -5 0
-7 -4 -4 -10z"/>
<path d="M3510 3362 c0 -5 7 -9 15 -9 8 0 12 4 9 9 -3 4 -9 8 -15 8 -5 0 -9
-4 -9 -8z"/>
<path d="M3825 3360 c-3 -6 1 -7 9 -4 18 7 21 14 7 14 -6 0 -13 -4 -16 -10z"/>
<path d="M1307 3339 c7 -7 15 -10 18 -7 3 3 -2 9 -12 12 -14 6 -15 5 -6 -5z"/>
<path d="M1495 3340 c3 -5 8 -10 11 -10 2 0 4 5 4 10 0 6 -5 10 -11 10 -5 0
-7 -4 -4 -10z"/>
<path d="M1655 3340 c-3 -5 -1 -10 4 -10 6 0 11 5 11 10 0 6 -2 10 -4 10 -3 0
-8 -4 -11 -10z"/>
<path d="M1734 3342 c4 -3 14 -7 22 -8 9 -1 13 0 10 4 -4 3 -14 7 -22 8 -9 1
-13 0 -10 -4z"/>
<path d="M2055 3340 c3 -5 8 -10 11 -10 2 0 4 5 4 10 0 6 -5 10 -11 10 -5 0
-7 -4 -4 -10z"/>
<path d="M2375 3340 c-3 -5 -1 -10 4 -10 6 0 11 5 11 10 0 6 -2 10 -4 10 -3 0
-8 -4 -11 -10z"/>
<path d="M2454 3342 c4 -3 14 -7 22 -8 9 -1 13 0 10 4 -4 3 -14 7 -22 8 -9 1
-13 0 -10 -4z"/>
<path d="M2575 3339 c-3 -4 2 -6 10 -5 21 3 28 13 10 13 -9 0 -18 -4 -20 -8z"/>
<path d="M2850 3340 c0 -5 5 -10 11 -10 5 0 7 5 4 10 -3 6 -8 10 -11 10 -2 0
-4 -4 -4 -10z"/>
<path d="M3015 3340 c3 -5 8 -10 11 -10 2 0 4 5 4 10 0 6 -5 10 -11 10 -5 0
-7 -4 -4 -10z"/>
<path d="M3335 3340 c-3 -5 -1 -10 4 -10 6 0 11 5 11 10 0 6 -2 10 -4 10 -3 0
-8 -4 -11 -10z"/>
<path d="M3414 3342 c4 -3 14 -7 22 -8 9 -1 13 0 10 4 -4 3 -14 7 -22 8 -9 1
-13 0 -10 -4z"/>
<path d="M3594 3342 c4 -3 14 -7 22 -8 9 -1 13 0 10 4 -4 3 -14 7 -22 8 -9 1
-13 0 -10 -4z"/>
<path d="M3715 3339 c-3 -4 2 -6 10 -5 21 3 28 13 10 13 -9 0 -18 -4 -20 -8z"/>
<path d="M2669 3323 c-13 -16 -12 -17 4 -4 16 13 21 21 13 21 -2 0 -10 -8 -17
-17z"/>
<path d="M1435 3321 c-3 -5 -2 -12 3 -15 5 -3 9 1 9 9 0 17 -3 19 -12 6z"/>
<path d="M2115 3320 c3 -5 8 -10 11 -10 2 0 4 5 4 10 0 6 -5 10 -11 10 -5 0
-7 -4 -4 -10z"/>
<path d="M2195 3320 c3 -5 8 -10 11 -10 2 0 4 5 4 10 0 6 -5 10 -11 10 -5 0
-7 -4 -4 -10z"/>
<path d="M3075 3320 c3 -5 8 -10 11 -10 2 0 4 5 4 10 0 6 -5 10 -11 10 -5 0
-7 -4 -4 -10z"/>
<path d="M3155 3320 c3 -5 8 -10 11 -10 2 0 4 5 4 10 0 6 -5 10 -11 10 -5 0
-7 -4 -4 -10z"/>
<path d="M6230 3322 c0 -5 7 -9 15 -9 8 0 12 4 9 9 -3 4 -9 8 -15 8 -5 0 -9
-4 -9 -8z"/>
<path d="M6346 3318 c3 -4 9 -8 15 -8 5 0 9 4 9 8 0 5 -7 9 -15 9 -8 0 -12 -4
-9 -9z"/>
<path d="M1316 3287 c3 -10 9 -15 12 -12 3 3 0 11 -7 18 -10 9 -11 8 -5 -6z"/>
<path d="M6456 3287 c3 -10 9 -15 12 -12 3 3 0 11 -7 18 -10 9 -11 8 -5 -6z"/>
<path d="M3666 3282 c-3 -5 1 -9 9 -9 8 0 12 4 9 9 -3 4 -7 8 -9 8 -2 0 -6 -4
-9 -8z"/>
<path d="M1375 3261 c-3 -5 -2 -12 3 -15 5 -3 9 1 9 9 0 17 -3 19 -12 6z"/>
<path d="M4935 3260 c-3 -5 -1 -10 4 -10 6 0 11 5 11 10 0 6 -2 10 -4 10 -3 0
-8 -4 -11 -10z"/>
<path d="M4910 3206 c0 -2 7 -7 16 -10 8 -3 12 -2 9 4 -6 10 -25 14 -25 6z"/>
<path d="M6516 3187 c3 -10 9 -15 12 -12 3 3 0 11 -7 18 -10 9 -11 8 -5 -6z"/>
<path d="M6790 3160 c0 -5 5 -10 11 -10 5 0 7 5 4 10 -3 6 -8 10 -11 10 -2 0
-4 -4 -4 -10z"/>
<path d="M6795 3129 c-4 -6 -5 -12 -2 -15 2 -3 7 2 10 11 7 17 1 20 -8 4z"/>
<path d="M6835 3131 c-3 -5 -2 -12 3 -15 5 -3 9 1 9 9 0 17 -3 19 -12 6z"/>
<path d="M6830 3081 c0 -6 4 -13 10 -16 6 -3 7 1 4 9 -7 18 -14 21 -14 7z"/>
<path d="M7115 3071 c-3 -5 -2 -12 3 -15 5 -3 9 1 9 9 0 17 -3 19 -12 6z"/>
<path d="M7015 3040 c-3 -5 -1 -10 4 -10 6 0 11 5 11 10 0 6 -2 10 -4 10 -3 0
-8 -4 -11 -10z"/>
<path d="M4713 2985 c0 -8 4 -12 9 -9 5 3 6 10 3 15 -9 13 -12 11 -12 -6z"/>
<path d="M4816 2982 c-3 -4 4 -9 15 -9 23 -2 25 3 4 10 -8 4 -16 3 -19 -1z"/>
<path d="M7216 2978 c3 -4 11 -5 19 -1 21 7 19 12 -4 10 -11 0 -18 -5 -15 -9z"/>
<path d="M4705 2940 c-3 -6 1 -7 9 -4 18 7 21 14 7 14 -6 0 -13 -4 -16 -10z"/>
<path d="M7356 2907 c3 -10 9 -15 12 -12 3 3 0 11 -7 18 -10 9 -11 8 -5 -6z"/>
<path d="M4709 2898 c7 -9 9 -23 5 -30 -6 -10 -4 -11 7 0 11 10 10 15 -6 30
-17 15 -18 15 -6 0z"/>
<path d="M8310 2859 c0 -5 5 -7 10 -4 6 3 10 8 10 11 0 2 -4 4 -10 4 -5 0 -10
-5 -10 -11z"/>
<path d="M4733 2825 c0 -8 4 -12 9 -9 5 3 6 10 3 15 -9 13 -12 11 -12 -6z"/>
<path d="M4630 2796 c0 -2 8 -10 18 -17 15 -13 16 -12 3 4 -13 16 -21 21 -21
13z"/>
<path d="M8294 2776 c1 -8 5 -18 8 -22 4 -3 5 1 4 10 -1 8 -5 18 -8 22 -4 3
-5 -1 -4 -10z"/>
<path d="M4590 2698 c0 -4 4 -8 9 -8 6 0 12 4 15 8 3 5 -1 9 -9 9 -8 0 -15 -4
-15 -9z"/>
<path d="M4555 2681 c-3 -5 -2 -12 3 -15 5 -3 9 1 9 9 0 17 -3 19 -12 6z"/>
<path d="M4534 2638 c-4 -7 -4 -10 1 -6 4 4 15 2 24 -5 14 -11 14 -10 2 6 -16
20 -18 21 -27 5z"/>
<path d="M4536 2598 c3 -4 11 -5 19 -1 21 7 19 12 -4 10 -11 0 -18 -5 -15 -9z"/>
<path d="M8273 2575 c0 -8 4 -12 9 -9 5 3 6 10 3 15 -9 13 -12 11 -12 -6z"/>
<path d="M4595 2551 c-3 -5 -2 -12 3 -15 5 -3 9 1 9 9 0 17 -3 19 -12 6z"/>
<path d="M4456 2482 c-3 -5 1 -9 9 -9 8 0 12 4 9 9 -3 4 -7 8 -9 8 -2 0 -6 -4
-9 -8z"/>
<path d="M8293 2409 c-2 -23 3 -25 10 -4 4 8 3 16 -1 19 -4 3 -9 -4 -9 -15z"/>
<path d="M8250 2379 c0 -5 5 -7 10 -4 6 3 10 8 10 11 0 2 -4 4 -10 4 -5 0 -10
-5 -10 -11z"/>
<path d="M4386 2322 c-3 -5 1 -9 9 -9 8 0 12 4 9 9 -3 4 -7 8 -9 8 -2 0 -6 -4
-9 -8z"/>
<path d="M4419 2273 c-13 -16 -12 -17 4 -4 9 7 17 15 17 17 0 8 -8 3 -21 -13z"/>
<path d="M4454 2276 c1 -8 5 -18 8 -22 4 -3 5 1 4 10 -1 8 -5 18 -8 22 -4 3
-5 -1 -4 -10z"/>
<path d="M1026 2238 c3 -5 10 -6 15 -3 13 9 11 12 -6 12 -8 0 -12 -4 -9 -9z"/>
<path d="M8116 2242 c-3 -5 1 -9 9 -9 8 0 12 4 9 9 -3 4 -7 8 -9 8 -2 0 -6 -4
-9 -8z"/>
<path d="M8156 2238 c3 -5 10 -6 15 -3 13 9 11 12 -6 12 -8 0 -12 -4 -9 -9z"/>
<path d="M4355 2210 c10 -11 20 -20 23 -20 3 0 -3 9 -13 20 -10 11 -20 20 -23
20 -3 0 3 -9 13 -20z"/>
<path d="M8096 2202 c-3 -5 1 -9 9 -9 8 0 12 4 9 9 -3 4 -7 8 -9 8 -2 0 -6 -4
-9 -8z"/>
<path d="M1150 2180 c0 -5 5 -10 11 -10 5 0 7 5 4 10 -3 6 -8 10 -11 10 -2 0
-4 -4 -4 -10z"/>
<path d="M4476 2182 c-3 -5 1 -9 9 -9 8 0 12 4 9 9 -3 4 -7 8 -9 8 -2 0 -6 -4
-9 -8z"/>
<path d="M8170 2179 c0 -5 5 -7 10 -4 6 3 10 8 10 11 0 2 -4 4 -10 4 -5 0 -10
-5 -10 -11z"/>
<path d="M8074 2146 c1 -8 5 -18 8 -22 4 -3 5 1 4 10 -1 8 -5 18 -8 22 -4 3
-5 -1 -4 -10z"/>
<path d="M3310 2102 c0 -5 7 -9 15 -9 8 0 12 4 9 9 -3 4 -9 8 -15 8 -5 0 -9
-4 -9 -8z"/>
<path d="M3356 2098 c3 -5 10 -6 15 -3 13 9 11 12 -6 12 -8 0 -12 -4 -9 -9z"/>
<path d="M3249 2083 c-13 -16 -12 -17 4 -4 9 7 17 15 17 17 0 8 -8 3 -21 -13z"/>
<path d="M4267 2059 c7 -7 15 -10 18 -7 3 3 -2 9 -12 12 -14 6 -15 5 -6 -5z"/>
<path d="M7959 2053 c-13 -16 -12 -17 4 -4 16 13 21 21 13 21 -2 0 -10 -8 -17
-17z"/>
<path d="M7994 2056 c1 -8 5 -18 8 -22 4 -3 5 1 4 10 -1 8 -5 18 -8 22 -4 3
-5 -1 -4 -10z"/>
<path d="M4341 2036 c-9 -11 -9 -16 1 -22 7 -4 10 -4 6 1 -4 4 -3 14 3 22 6 7
9 13 6 13 -2 0 -10 -6 -16 -14z"/>
<path d="M5850 2046 c0 -2 7 -7 16 -10 8 -3 12 -2 9 4 -6 10 -25 14 -25 6z"/>
<path d="M8115 2040 c3 -5 8 -10 11 -10 2 0 4 5 4 10 0 6 -5 10 -11 10 -5 0
-7 -4 -4 -10z"/>
<path d="M3079 2028 c-6 -20 -6 -39 0 -42 4 -3 7 6 7 20 0 20 -4 32 -7 22z"/>
<path d="M3330 2019 c0 -5 5 -7 10 -4 6 3 10 8 10 11 0 2 -4 4 -10 4 -5 0 -10
-5 -10 -11z"/>
<path d="M8099 2028 c-5 -18 -6 -38 -1 -34 7 8 12 36 6 36 -2 0 -4 -1 -5 -2z"/>
<path d="M3236 1993 c-6 -14 -5 -15 5 -6 7 7 10 15 7 18 -3 3 -9 -2 -12 -12z"/>
<path d="M7913 1985 c0 -8 4 -12 9 -9 5 3 6 10 3 15 -9 13 -12 11 -12 -6z"/>
<path d="M3026 1978 c3 -4 9 -8 15 -8 5 0 9 4 9 8 0 5 -7 9 -15 9 -8 0 -12 -4
-9 -9z"/>
<path d="M4227 1979 c7 -7 15 -10 18 -7 3 3 -2 9 -12 12 -14 6 -15 5 -6 -5z"/>
<path d="M4195 1971 c-3 -5 -2 -12 3 -15 5 -3 9 1 9 9 0 17 -3 19 -12 6z"/>
<path d="M1555 1960 c-3 -5 -1 -10 4 -10 6 0 11 5 11 10 0 6 -2 10 -4 10 -3 0
-8 -4 -11 -10z"/>
<path d="M1590 1960 c0 -5 5 -10 10 -10 6 0 10 5 10 10 0 6 -4 10 -10 10 -5 0
-10 -4 -10 -10z"/>
<path d="M1620 1966 c0 -2 8 -10 18 -17 15 -13 16 -12 3 4 -13 16 -21 21 -21
13z"/>
<path d="M2956 1958 c3 -5 10 -6 15 -3 13 9 11 12 -6 12 -8 0 -12 -4 -9 -9z"/>
<path d="M7936 1958 c3 -5 10 -6 15 -3 13 9 11 12 -6 12 -8 0 -12 -4 -9 -9z"/>
<path d="M8015 1951 c-3 -5 -2 -12 3 -15 5 -3 9 1 9 9 0 17 -3 19 -12 6z"/>
<path d="M2860 1940 c-9 -6 -10 -10 -3 -10 6 0 15 5 18 10 8 12 4 12 -15 0z"/>
<path d="M2990 1942 c0 -5 7 -9 15 -9 8 0 12 4 9 9 -3 4 -9 8 -15 8 -5 0 -9
-4 -9 -8z"/>
<path d="M3030 1946 c0 -2 7 -7 16 -10 8 -3 12 -2 9 4 -6 10 -25 14 -25 6z"/>
<path d="M5979 1948 c-5 -18 -6 -38 -1 -34 7 8 12 36 6 36 -2 0 -4 -1 -5 -2z"/>
<path d="M2790 1915 c5 -7 6 -16 2 -21 -4 -5 -3 -5 2 -1 15 12 15 34 0 34 -9
0 -11 -4 -4 -12z"/>
<path d="M4191 1925 c4 -3 19 -8 35 -11 16 -3 26 -2 23 1 -4 3 -19 8 -35 11
-16 3 -26 2 -23 -1z"/>
<path d="M4260 1926 c0 -2 8 -10 18 -17 15 -13 16 -12 3 4 -13 16 -21 21 -21
13z"/>
<path d="M7977 1915 c-4 -8 -3 -16 1 -19 4 -3 9 4 9 15 2 23 -3 25 -10 4z"/>
<path d="M2829 1903 c-13 -16 -12 -17 4 -4 16 13 21 21 13 21 -2 0 -10 -8 -17
-17z"/>
<path d="M1655 1900 c3 -5 8 -10 11 -10 2 0 4 5 4 10 0 6 -5 10 -11 10 -5 0
-7 -4 -4 -10z"/>
<path d="M2915 1900 c-3 -5 -1 -10 4 -10 6 0 11 5 11 10 0 6 -2 10 -4 10 -3 0
-8 -4 -11 -10z"/>
<path d="M3136 1902 c-3 -5 1 -9 9 -9 8 0 12 4 9 9 -3 4 -7 8 -9 8 -2 0 -6 -4
-9 -8z"/>
<path d="M7930 1899 c0 -5 5 -7 10 -4 6 3 10 8 10 11 0 2 -4 4 -10 4 -5 0 -10
-5 -10 -11z"/>
<path d="M3229 1883 c-13 -16 -12 -17 4 -4 9 7 17 15 17 17 0 8 -8 3 -21 -13z"/>
<path d="M4355 1891 c-3 -5 -2 -12 3 -15 5 -3 9 1 9 9 0 17 -3 19 -12 6z"/>
<path d="M7771 1887 c-8 -10 -7 -14 2 -14 8 0 14 6 14 14 0 7 -1 13 -2 13 -2
0 -8 -6 -14 -13z"/>
<path d="M1860 1886 c0 -2 8 -10 18 -17 15 -13 16 -12 3 4 -13 16 -21 21 -21
13z"/>
<path d="M2635 1879 c-3 -4 2 -6 10 -5 21 3 28 13 10 13 -9 0 -18 -4 -20 -8z"/>
<path d="M2846 1878 c3 -5 9 -7 12 -4 3 3 12 0 21 -6 13 -10 14 -10 4 2 -15
16 -46 23 -37 8z"/>
<path d="M1733 1865 c0 -8 4 -12 9 -9 5 3 6 10 3 15 -9 13 -12 11 -12 -6z"/>
<path d="M1770 1859 c0 -5 5 -7 10 -4 6 3 10 8 10 11 0 2 -4 4 -10 4 -5 0 -10
-5 -10 -11z"/>
<path d="M2799 1853 c-13 -16 -12 -17 4 -4 16 13 21 21 13 21 -2 0 -10 -8 -17
-17z"/>
<path d="M4190 1859 c0 -5 5 -7 10 -4 6 3 10 8 10 11 0 2 -4 4 -10 4 -5 0 -10
-5 -10 -11z"/>
<path d="M6105 1860 c-3 -6 1 -7 9 -4 18 7 21 14 7 14 -6 0 -13 -4 -16 -10z"/>
<path d="M7706 1862 c-2 -4 4 -8 14 -8 10 0 16 4 14 8 -3 4 -9 8 -14 8 -5 0
-11 -4 -14 -8z"/>
<path d="M2417 1853 c-10 -9 -9 -23 1 -23 5 0 9 7 9 15 0 17 -1 18 -10 8z"/>
<path d="M2655 1849 c-4 -6 -5 -12 -2 -15 2 -3 7 2 10 11 7 17 1 20 -8 4z"/>
<path d="M2030 1841 c0 -6 4 -13 10 -16 6 -3 7 1 4 9 -7 18 -14 21 -14 7z"/>
<path d="M2839 1833 c-13 -16 -12 -17 4 -4 16 13 21 21 13 21 -2 0 -10 -8 -17
-17z"/>
<path d="M2930 1840 c0 -5 5 -10 11 -10 5 0 7 5 4 10 -3 6 -8 10 -11 10 -2 0
-4 -4 -4 -10z"/>
<path d="M7646 1842 c-3 -5 1 -9 9 -9 8 0 12 4 9 9 -3 4 -7 8 -9 8 -2 0 -6 -4
-9 -8z"/>
<path d="M1805 1820 c-3 -6 1 -7 9 -4 18 7 21 14 7 14 -6 0 -13 -4 -16 -10z"/>
<path d="M6139 1828 c-5 -18 -6 -38 -1 -34 7 8 12 36 6 36 -2 0 -4 -1 -5 -2z"/>
<path d="M7676 1822 c-2 -4 -1 -14 4 -22 7 -11 9 -9 7 8 -1 24 -3 26 -11 14z"/>
<path d="M7896 1822 c-3 -5 1 -9 9 -9 8 0 12 4 9 9 -3 4 -7 8 -9 8 -2 0 -6 -4
-9 -8z"/>
<path d="M1916 1793 c-6 -14 -5 -15 5 -6 7 7 10 15 7 18 -3 3 -9 -2 -12 -12z"/>
<path d="M2553 1795 c0 -8 4 -12 9 -9 5 3 6 10 3 15 -9 13 -12 11 -12 -6z"/>
<path d="M2635 1800 c-3 -5 -1 -10 4 -10 6 0 11 5 11 10 0 6 -2 10 -4 10 -3 0
-8 -4 -11 -10z"/>
<path d="M6066 1798 c3 -5 10 -6 15 -3 13 9 11 12 -6 12 -8 0 -12 -4 -9 -9z"/>
<path d="M7565 1799 c-3 -4 2 -6 10 -5 21 3 28 13 10 13 -9 0 -18 -4 -20 -8z"/>
<path d="M7610 1806 c0 -2 7 -7 16 -10 8 -3 12 -2 9 4 -6 10 -25 14 -25 6z"/>
<path d="M2133 1785 c0 -8 4 -12 9 -9 5 3 6 10 3 15 -9 13 -12 11 -12 -6z"/>
<path d="M4213 1785 c0 -8 4 -12 9 -9 5 3 6 10 3 15 -9 13 -12 11 -12 -6z"/>
<path d="M1975 1781 c-3 -5 -2 -12 3 -15 5 -3 9 1 9 9 0 17 -3 19 -12 6z"/>
<path d="M2755 1780 c3 -5 8 -10 11 -10 2 0 4 5 4 10 0 6 -5 10 -11 10 -5 0
-7 -4 -4 -10z"/>
<path d="M7810 1780 c0 -5 5 -10 11 -10 5 0 7 5 4 10 -3 6 -8 10 -11 10 -2 0
-4 -4 -4 -10z"/>
<path d="M2956 1767 c3 -10 9 -15 12 -12 3 3 0 11 -7 18 -10 9 -11 8 -5 -6z"/>
<path d="M2630 1759 c0 -5 5 -7 10 -4 6 3 10 8 10 11 0 2 -4 4 -10 4 -5 0 -10
-5 -10 -11z"/>
<path d="M6496 1762 c-3 -5 1 -9 9 -9 8 0 12 4 9 9 -3 4 -7 8 -9 8 -2 0 -6 -4
-9 -8z"/>
<path d="M7459 1753 c-13 -16 -12 -17 4 -4 16 13 21 21 13 21 -2 0 -10 -8 -17
-17z"/>
<path d="M2516 1747 c3 -10 9 -15 12 -12 3 3 0 11 -7 18 -10 9 -11 8 -5 -6z"/>
<path d="M2254 1736 c1 -8 5 -18 8 -22 4 -3 5 1 4 10 -1 8 -5 18 -8 22 -4 3
-5 -1 -4 -10z"/>
<path d="M2336 1738 c3 -4 11 -5 19 -1 21 7 19 12 -4 10 -11 0 -18 -5 -15 -9z"/>
<path d="M2470 1739 c0 -5 5 -7 10 -4 6 3 10 8 10 11 0 2 -4 4 -10 4 -5 0 -10
-5 -10 -11z"/>
<path d="M4175 1740 c3 -5 8 -10 11 -10 2 0 4 5 4 10 0 6 -5 10 -11 10 -5 0
-7 -4 -4 -10z"/>
<path d="M6285 1740 c-3 -6 1 -7 9 -4 18 7 21 14 7 14 -6 0 -13 -4 -16 -10z"/>
<path d="M6514 1729 c-3 -6 -2 -15 3 -20 5 -5 9 -1 9 11 0 23 -2 24 -12 9z"/>
<path d="M6589 1723 c-13 -16 -12 -17 4 -4 16 13 21 21 13 21 -2 0 -10 -8 -17
-17z"/>
<path d="M7470 1715 c5 -7 6 -16 2 -21 -4 -5 -3 -5 2 -1 15 12 15 34 0 34 -9
0 -11 -4 -4 -12z"/>
<path d="M4175 1711 c-3 -5 -2 -12 3 -15 5 -3 9 1 9 9 0 17 -3 19 -12 6z"/>
<path d="M7395 1711 c-3 -5 -2 -12 3 -15 5 -3 9 1 9 9 0 17 -3 19 -12 6z"/>
<path d="M6415 1700 c-3 -5 -1 -10 4 -10 6 0 11 5 11 10 0 6 -2 10 -4 10 -3 0
-8 -4 -11 -10z"/>
<path d="M6911 1693 c7 -12 15 -20 18 -17 3 2 -3 12 -13 22 -17 16 -18 16 -5
-5z"/>
<path d="M6988 1703 c6 -3 10 -9 6 -14 -8 -14 2 -11 14 4 8 10 6 13 -11 14
-12 0 -16 -1 -9 -4z"/>
<path d="M7350 1702 c0 -5 7 -9 15 -9 8 0 12 4 9 9 -3 4 -9 8 -15 8 -5 0 -9
-4 -9 -8z"/>
<path d="M6236 1687 c3 -10 9 -15 12 -12 3 3 0 11 -7 18 -10 9 -11 8 -5 -6z"/>
<path d="M6633 1685 c0 -8 4 -12 9 -9 5 3 6 10 3 15 -9 13 -12 11 -12 -6z"/>
<path d="M6815 1689 c-4 -6 -5 -12 -2 -15 2 -3 7 2 10 11 7 17 1 20 -8 4z"/>
<path d="M6953 1687 c0 -8 6 -14 14 -14 9 0 10 4 2 14 -6 7 -12 13 -14 13 -1
0 -2 -6 -2 -13z"/>
<path d="M7026 1682 c-3 -5 1 -9 9 -9 8 0 12 4 9 9 -3 4 -7 8 -9 8 -2 0 -6 -4
-9 -8z"/>
<path d="M7273 1675 c0 -8 4 -12 9 -9 5 3 6 10 3 15 -9 13 -12 11 -12 -6z"/>
<path d="M7574 1676 c1 -8 5 -18 8 -22 4 -3 5 1 4 10 -1 8 -5 18 -8 22 -4 3
-5 -1 -4 -10z"/>
<path d="M4035 1651 c-3 -5 -2 -12 3 -15 5 -3 9 1 9 9 0 17 -3 19 -12 6z"/>
<path d="M6755 1651 c-3 -5 -2 -12 3 -15 5 -3 9 1 9 9 0 17 -3 19 -12 6z"/>
<path d="M6969 1643 c-13 -16 -12 -17 4 -4 16 13 21 21 13 21 -2 0 -10 -8 -17
-17z"/>
<path d="M7016 1647 c3 -10 9 -15 12 -12 3 3 0 11 -7 18 -10 9 -11 8 -5 -6z"/>
<path d="M7275 1641 c-3 -5 -2 -12 3 -15 5 -3 9 1 9 9 0 17 -3 19 -12 6z"/>
<path d="M7350 1637 c0 -2 6 -10 14 -16 11 -9 16 -9 22 1 4 7 4 10 -1 6 -4 -4
-14 -3 -22 3 -7 6 -13 9 -13 6z"/>
<path d="M6670 1620 c0 -5 5 -10 11 -10 5 0 7 5 4 10 -3 6 -8 10 -11 10 -2 0
-4 -4 -4 -10z"/>
<path d="M6895 1620 c3 -5 8 -10 11 -10 2 0 4 5 4 10 0 6 -5 10 -11 10 -5 0
-7 -4 -4 -10z"/>
<path d="M6930 1619 c0 -5 5 -7 10 -4 6 3 10 8 10 11 0 2 -4 4 -10 4 -5 0 -10
-5 -10 -11z"/>
<path d="M7170 1619 c0 -5 5 -7 10 -4 6 3 10 8 10 11 0 2 -4 4 -10 4 -5 0 -10
-5 -10 -11z"/>
<path d="M7416 1618 c3 -5 10 -6 15 -3 13 9 11 12 -6 12 -8 0 -12 -4 -9 -9z"/>
<path d="M4029 1603 c-13 -16 -12 -17 4 -4 16 13 21 21 13 21 -2 0 -10 -8 -17
-17z"/>
<path d="M4056 1602 c-3 -4 4 -9 15 -9 23 -2 25 3 4 10 -8 4 -16 3 -19 -1z"/>
<path d="M4107 1599 c7 -7 15 -10 18 -7 3 3 -2 9 -12 12 -14 6 -15 5 -6 -5z"/>
<path d="M7105 1580 c-3 -6 1 -7 9 -4 18 7 21 14 7 14 -6 0 -13 -4 -16 -10z"/>
<path d="M4013 1567 c0 -8 6 -14 14 -14 9 0 10 4 2 14 -6 7 -12 13 -14 13 -1
0 -2 -6 -2 -13z"/>
<path d="M3987 1499 c7 -7 15 -10 18 -7 3 3 -2 9 -12 12 -14 6 -15 5 -6 -5z"/>
<path d="M3966 1358 c3 -5 10 -6 15 -3 13 9 11 12 -6 12 -8 0 -12 -4 -9 -9z"/>
<path d="M3995 1340 c-3 -5 -1 -10 4 -10 6 0 11 5 11 10 0 6 -2 10 -4 10 -3 0
-8 -4 -11 -10z"/>
<path d="M3993 1285 c0 -8 4 -12 9 -9 5 3 6 10 3 15 -9 13 -12 11 -12 -6z"/>
<path d="M3875 1239 c-3 -4 2 -6 10 -5 21 3 28 13 10 13 -9 0 -18 -4 -20 -8z"/>
<path d="M3830 1179 c0 -5 5 -7 10 -4 6 3 10 8 10 11 0 2 -4 4 -10 4 -5 0 -10
-5 -10 -11z"/>
<path d="M3933 1175 c0 -8 4 -12 9 -9 5 3 6 10 3 15 -9 13 -12 11 -12 -6z"/>
<path d="M3826 1142 c-3 -5 1 -9 9 -9 8 0 12 4 9 9 -3 4 -7 8 -9 8 -2 0 -6 -4
-9 -8z"/>
<path d="M3899 1148 c-5 -18 -6 -38 -1 -34 7 8 12 36 6 36 -2 0 -4 -1 -5 -2z"/>
<path d="M3753 1065 c0 -8 4 -12 9 -9 5 3 6 10 3 15 -9 13 -12 11 -12 -6z"/>
<path d="M3785 1060 c-3 -6 1 -7 9 -4 18 7 21 14 7 14 -6 0 -13 -4 -16 -10z"/>
<path d="M3827 1039 c7 -7 15 -10 18 -7 3 3 -2 9 -12 12 -14 6 -15 5 -6 -5z"/>
<path d="M3810 979 c0 -5 5 -7 10 -4 6 3 10 8 10 11 0 2 -4 4 -10 4 -5 0 -10
-5 -10 -11z"/>
<path d="M3714 880 c0 -13 4 -16 10 -10 7 7 7 13 0 20 -6 6 -10 3 -10 -10z"/>
<path d="M3785 880 c-3 -6 1 -7 9 -4 18 7 21 14 7 14 -6 0 -13 -4 -16 -10z"/>
<path d="M3050 819 c0 -5 5 -7 10 -4 6 3 10 8 10 11 0 2 -4 4 -10 4 -5 0 -10
-5 -10 -11z"/>
<path d="M3150 826 c0 -2 7 -7 16 -10 8 -3 12 -2 9 4 -6 10 -25 14 -25 6z"/>
<path d="M3350 821 c0 -6 4 -12 8 -15 5 -3 9 1 9 9 0 8 -4 15 -9 15 -4 0 -8
-4 -8 -9z"/>
<path d="M3510 821 c0 -6 4 -13 10 -16 6 -3 7 1 4 9 -7 18 -14 21 -14 7z"/>
<path d="M3584 802 c4 -3 14 -7 22 -8 9 -1 13 0 10 4 -4 3 -14 7 -22 8 -9 1
-13 0 -10 -4z"/>
<path d="M3033 785 c0 -8 4 -12 9 -9 5 3 6 10 3 15 -9 13 -12 11 -12 -6z"/>
<path d="M3686 778 c3 -5 10 -6 15 -3 13 9 11 12 -6 12 -8 0 -12 -4 -9 -9z"/>
<path d="M3530 739 c0 -5 5 -7 10 -4 6 3 10 8 10 11 0 2 -4 4 -10 4 -5 0 -10
-5 -10 -11z"/>
<path d="M3566 742 c-3 -5 1 -9 9 -9 8 0 12 4 9 9 -3 4 -7 8 -9 8 -2 0 -6 -4
-9 -8z"/>
<path d="M3675 741 c-3 -5 -2 -12 3 -15 5 -3 9 1 9 9 0 17 -3 19 -12 6z"/>
<path d="M3136 722 c-3 -5 1 -9 9 -9 8 0 12 4 9 9 -3 4 -7 8 -9 8 -2 0 -6 -4
-9 -8z"/>
</g>
</svg>
