<?xml version="1.0" encoding="iso-8859-1"?>
<!-- Generator: Adobe Illustrator 18.0.0, SVG Export Plug-In . SVG Version: 6.00 Build 0)  -->
<!DOCTYPE svg PUBLIC "-//W3C//DTD SVG 1.1//EN" "http://www.w3.org/Graphics/SVG/1.1/DTD/svg11.dtd">
<svg version="1.1" id="Capa_1" xmlns="http://www.w3.org/2000/svg" xmlns:xlink="http://www.w3.org/1999/xlink" x="0px" y="0px"
	 viewBox="0 0 460.884 460.884" style="enable-background:new 0 0 460.884 460.884;" xml:space="preserve">
<g id="XMLID_7_">
	<path id="XMLID_526_" d="M225.116,320.835l-6.151,13.323l-20.8,98.214c-2.702,12.759,5.45,25.292,18.209,27.994
		c12.754,2.702,25.292-5.449,27.994-18.209l22.457-106.039l-8.678-7.481L225.116,320.835z"/>
	<path id="XMLID_1118_" d="M360.828,329.857l-67.38-58.082c-2.872-2.477-6.299-4.223-9.988-5.096l-30.717-7.257
		c-0.63,2.4-1.468,4.755-2.523,7.04l-17.023,36.871l33.787,7.982l63.008,54.314c9.899,8.531,24.806,7.39,33.304-2.467
		C371.811,353.282,370.705,338.372,360.828,329.857z"/>
	<path id="XMLID_1120_" d="M375.774,135.205c-0.673-1.761-1.584-3.358-2.662-4.794l-47.528,45.045l38.835-14.844
		C374.571,156.731,379.655,145.356,375.774,135.205z"/>
	<path id="XMLID_1121_" d="M159.923,287.788c-3.681-5.92-2.841-4.569-22.774-36.623L89.93,270.513
		c-3.807,1.56-6.246,5.32-6.118,9.432c0.128,4.112,2.796,7.713,6.692,9.033l37.941,12.853c12.859,4.357,22.78,14.72,26.571,27.757
		l11.186,38.465c1.149,3.951,4.63,6.773,8.732,7.08c0.248,0.019,0.494,0.028,0.74,0.028c3.821,0,7.33-2.218,8.95-5.728
		l33.878-73.378C200.42,312.348,172.431,307.907,159.923,287.788z"/>
	<path id="XMLID_1139_" d="M218.262,223.535c-2.551-0.661-5.193-0.944-7.95-0.793c5.578,8.971,2.183,3.511,15.118,24.311
		c3.851,6.193,6.019,13.634,5.783,21.473l4.125-8.935c3.077-6.665,3.136-14.156,0.476-20.696l12.416-11.768l111.013-105.215
		c4.654-4.411,4.851-11.76,0.439-16.414c-4.41-4.655-11.76-4.851-16.414-0.44L231.335,211.145L218.262,223.535z"/>
	<circle id="XMLID_1143_" cx="192.55" cy="40.784" r="40.784"/>
	<path id="XMLID_1144_" d="M134.448,211.048l41.518,66.764c5.835,9.387,18.077,11.931,27.102,6.319
		c9.229-5.739,12.058-17.868,6.319-27.102l-35.946-57.804l0,0l31.059-68.093l-11.21,64.239l7.672,12.338
		c4.248-1.12,8.405-1.536,12.591-1.353l30.898-29.285v-18.952l10.722,8.79l28.792-27.288c-38.838-31.914-47.257-38.469-53.767-42.42
		c-3.943-2.178-8.475-3.42-13.298-3.42h-49.131c-15.216,0-27.551,12.335-27.551,27.551v31.289l27.333-35.323l-34.298,75.192l0,0
		C130.475,198.586,131.035,205.559,134.448,211.048z"/>
</g>
<g>
</g>
<g>
</g>
<g>
</g>
<g>
</g>
<g>
</g>
<g>
</g>
<g>
</g>
<g>
</g>
<g>
</g>
<g>
</g>
<g>
</g>
<g>
</g>
<g>
</g>
<g>
</g>
<g>
</g>
</svg>
