<?xml version="1.0" encoding="iso-8859-1"?>
<!-- Generator: Adobe Illustrator 19.0.0, SVG Export Plug-In . SVG Version: 6.00 Build 0)  -->
<svg version="1.1" id="Layer_1" xmlns="http://www.w3.org/2000/svg" xmlns:xlink="http://www.w3.org/1999/xlink" x="0px" y="0px"
	 viewBox="0 0 470 470" style="enable-background:new 0 0 470 470;" xml:space="preserve">
<g>
	<g>
		<g>
			<path d="M401.17,70.08C356.785,25.694,297.771,1.25,235,1.25S113.215,25.694,68.83,70.08C24.444,114.465,0,173.479,0,236.25v20
				c0,20.678,16.822,37.5,37.5,37.5h0.687c1.934,6.616,4.2,13.148,6.813,19.581v32.919c0,4.142,3.358,7.5,7.5,7.5
				c4.142,0,7.5-3.358,7.5-7.5v-34.398c0-0.986-0.194-1.962-0.572-2.873C49.854,285.894,45,261.424,45,236.25
				c0-104.766,85.234-190,190-190s190,85.234,190,190c0,25.175-4.854,49.645-14.428,72.729c-0.378,0.911-0.572,1.887-0.572,2.873
				v34.398c0,4.142,3.358,7.5,7.5,7.5c4.142,0,7.5-3.358,7.5-7.5v-32.919c2.613-6.433,4.879-12.965,6.813-19.581h0.687
				c20.678,0,37.5-16.822,37.5-37.5v-20C470,173.479,445.556,114.465,401.17,70.08z M15,256.25v-12.5h15.149
				c0.421,11.769,1.833,23.382,4.226,34.778C23.443,277.002,15,267.596,15,256.25z M235,31.25
				c-110.526,0-200.886,87.925-204.848,197.5h-15.01C19.111,110.902,116.203,16.25,235,16.25s215.889,94.652,219.858,212.5h-15.01
				C435.886,119.175,345.526,31.25,235,31.25z M455,256.25c0,11.346-8.443,20.752-19.375,22.278
				c2.393-11.396,3.805-23.009,4.226-34.778H455V256.25z"/>
			<path d="M157.5,223.75c-26.634,0-48.683,19.94-52.041,45.672C88.137,272.728,75,287.979,75,306.25v80
				c0,18.271,13.137,33.522,30.459,36.828c3.359,25.732,25.408,45.672,52.041,45.672c28.949,0,52.5-23.551,52.5-52.5v-140
				C210,247.301,186.449,223.75,157.5,223.75z M195,416.25c0,20.678-16.822,37.5-37.5,37.5s-37.5-16.822-37.5-37.5v-55
				c0-4.142-3.358-7.5-7.5-7.5c-4.142,0-7.5,3.358-7.5,7.5v46.21c-8.729-3.096-15-11.432-15-21.21v-80
				c0-9.778,6.271-18.114,15-21.21v46.21c0,4.142,3.358,7.5,7.5,7.5c4.142,0,7.5-3.358,7.5-7.5v-55c0-20.678,16.822-37.5,37.5-37.5
				s37.5,16.822,37.5,37.5V416.25z"/>
			<path d="M364.541,269.422c-3.359-25.732-25.408-45.672-52.041-45.672c-28.949,0-52.5,23.551-52.5,52.5v140
				c0,28.949,23.551,52.5,52.5,52.5c26.634,0,48.683-19.94,52.041-45.672C381.863,419.772,395,404.521,395,386.25v-80
				C395,287.979,381.863,272.728,364.541,269.422z M380,386.25c0,9.778-6.271,18.114-15,21.21v-46.21c0-4.142-3.358-7.5-7.5-7.5
				c-4.142,0-7.5,3.358-7.5,7.5v55c0,20.678-16.822,37.5-37.5,37.5c-20.678,0-37.5-16.822-37.5-37.5v-140
				c0-20.678,16.822-37.5,37.5-37.5c20.678,0,37.5,16.822,37.5,37.5v55c0,4.142,3.358,7.5,7.5,7.5c4.142,0,7.5-3.358,7.5-7.5v-46.21
				c8.729,3.096,15,11.432,15,21.21V386.25z"/>
		</g>
	</g>
</g>
<g>
</g>
<g>
</g>
<g>
</g>
<g>
</g>
<g>
</g>
<g>
</g>
<g>
</g>
<g>
</g>
<g>
</g>
<g>
</g>
<g>
</g>
<g>
</g>
<g>
</g>
<g>
</g>
<g>
</g>
</svg>
